<svg xmlns="http://www.w3.org/2000/svg" version="1.1" viewBox="0.00 0.00 312.00 106.00" width="312.00" height="106.00">
<g stroke-width="2.00" fill="none" stroke-linecap="butt">
<path stroke="#8da1ca" d="&#10;  M 77.40 44.21&#10;  L 60.80 15.47&#10;  A 0.39 0.39 0.0 0 0 60.12 15.47&#10;  L 21.15 82.96&#10;  Q 20.96 83.30 21.34 83.30&#10;  L 43.59 83.30&#10;  A 1.14 1.14 0.0 0 0 44.58 82.73&#10;  L 61.33 53.70&#10;  A 0.47 0.47 0.0 0 1 62.15 53.70&#10;  L 67.41 62.82&#10;  Q 67.72 63.34 68.02 62.82&#10;  L 77.39 46.60&#10;  A 0.17 0.17 0.0 0 1 77.69 46.60&#10;  L 98.62 82.84&#10;  A 1.30 1.29 -14.6 0 0 99.75 83.50&#10;  L 114.97 83.50&#10;  Q 115.43 83.50 115.20 83.10&#10;  L 85.60 32.14&#10;  Q 85.37 31.75 84.99 32.00&#10;  Q 84.90 32.06 84.78 32.27&#10;  Q 80.43 39.66 77.81 44.21&#10;  A 0.24 0.23 -44.6 0 1 77.40 44.21"/>
<path stroke="#8da1ca" d="&#10;  M 129.54 29.62&#10;  L 130.34 26.45&#10;  A 0.41 0.40 -82.8 0 0 129.95 25.94&#10;  L 126.20 25.94&#10;  A 0.38 0.38 0.0 0 0 125.83 26.23&#10;  L 124.95 29.71&#10;  Q 124.82 30.21 124.32 30.21&#10;  L 122.17 30.21&#10;  Q 121.59 30.21 121.59 30.79&#10;  L 121.59 33.95&#10;  Q 121.59 34.49 122.13 34.49&#10;  L 123.32 34.49&#10;  A 0.49 0.49 0.0 0 1 123.80 35.08&#10;  Q 123.19 37.89 122.30 41.07&#10;  Q 121.65 43.36 121.92 46.97&#10;  Q 121.96 47.50 122.49 47.50&#10;  L 127.92 47.50&#10;  Q 128.33 47.50 128.33 47.91&#10;  L 128.33 50.59&#10;  Q 128.33 51.01 127.91 51.01&#10;  L 122.05 51.01&#10;  A 0.39 0.38 -0.0 0 0 121.66 51.39&#10;  L 121.66 55.19&#10;  Q 121.66 55.48 121.95 55.48&#10;  L 128.00 55.48&#10;  Q 128.33 55.48 128.33 55.80&#10;  L 128.33 60.81&#10;  A 0.46 0.45 90.0 0 0 128.78 61.27&#10;  L 132.25 61.27&#10;  Q 132.76 61.27 132.76 60.76&#10;  L 132.76 55.45&#10;  Q 132.76 54.91 133.30 54.91&#10;  L 135.33 54.91&#10;  Q 136.21 54.91 136.21 54.03&#10;  L 136.21 51.22&#10;  Q 136.21 50.55 135.54 50.55&#10;  L 133.26 50.55&#10;  Q 132.75 50.55 132.75 50.03&#10;  L 132.75 48.08&#10;  Q 132.75 47.50 133.33 47.50&#10;  L 135.04 47.50&#10;  Q 135.81 47.50 135.81 46.73&#10;  L 135.81 43.99&#10;  Q 135.81 43.21 135.02 43.21&#10;  L 133.21 43.21&#10;  Q 132.75 43.21 132.75 42.75&#10;  L 132.75 37.07&#10;  Q 132.75 36.64 132.33 36.64&#10;  L 128.92 36.64&#10;  A 0.59 0.58 0.0 0 0 128.33 37.22&#10;  L 128.33 42.64&#10;  A 0.60 0.60 0.0 0 1 127.73 43.24&#10;  L 126.72 43.24&#10;  A 0.41 0.40 -83.2 0 1 126.33 42.74&#10;  L 128.28 35.03&#10;  Q 128.42 34.51 128.95 34.51&#10;  L 135.76 34.51&#10;  Q 136.24 34.51 136.24 34.04&#10;  L 136.24 30.86&#10;  Q 136.24 30.22 135.60 30.22&#10;  L 130.01 30.22&#10;  Q 129.39 30.22 129.54 29.62"/>
<path stroke="#8da1ca" d="&#10;  M 179.59 53.21&#10;  A 0.39 0.39 0.0 0 1 179.20 53.60&#10;  L 172.18 53.60&#10;  A 0.39 0.39 0.0 0 1 171.79 53.21&#10;  L 171.79 33.04&#10;  A 0.39 0.39 0.0 0 0 171.40 32.65&#10;  L 166.98 32.65&#10;  A 0.39 0.39 0.0 0 0 166.59 33.04&#10;  L 166.59 57.95&#10;  A 0.39 0.39 0.0 0 0 166.98 58.34&#10;  L 192.46 58.34&#10;  A 0.39 0.39 0.0 0 1 192.85 58.73&#10;  L 192.85 60.85&#10;  A 0.39 0.39 0.0 0 0 193.24 61.24&#10;  L 197.66 61.24&#10;  A 0.39 0.39 0.0 0 0 198.05 60.85&#10;  L 198.05 33.04&#10;  A 0.39 0.39 0.0 0 0 197.66 32.65&#10;  L 193.24 32.65&#10;  A 0.39 0.39 0.0 0 0 192.85 33.04&#10;  L 192.85 53.21&#10;  A 0.39 0.39 0.0 0 1 192.46 53.60&#10;  L 185.48 53.60&#10;  A 0.39 0.39 0.0 0 1 185.09 53.21&#10;  L 185.09 26.17&#10;  A 0.39 0.39 0.0 0 0 184.70 25.78&#10;  L 179.98 25.78&#10;  A 0.39 0.39 0.0 0 0 179.59 26.17&#10;  L 179.59 53.21"/>
<path stroke="#8da1ca" d="&#10;  M 237.83 46.93&#10;  L 237.83 26.19&#10;  Q 237.83 25.79 237.44 25.79&#10;  L 233.05 25.79&#10;  Q 232.64 25.79 232.64 26.20&#10;  L 232.64 47.50&#10;  Q 232.64 47.85 232.29 47.89&#10;  L 222.00 48.99&#10;  Q 220.45 49.15 221.62 48.12&#10;  L 223.03 46.88&#10;  Q 223.55 46.43 223.02 45.99&#10;  L 219.21 42.84&#10;  Q 218.82 42.53 218.41 42.81&#10;  Q 218.16 42.99 217.74 43.51&#10;  Q 217.38 43.96 217.26 43.40&#10;  Q 217.02 42.30 217.22 41.44&#10;  Q 217.35 40.91 217.90 40.91&#10;  L 221.23 40.91&#10;  Q 221.99 40.91 222.58 41.39&#10;  L 227.86 45.74&#10;  Q 228.20 46.02 228.48 45.68&#10;  L 230.75 42.92&#10;  A 0.47 0.47 0.0 0 0 230.69 42.25&#10;  L 225.41 37.90&#10;  Q 225.04 37.59 224.68 37.91&#10;  Q 223.59 38.90 223.22 39.42&#10;  Q 221.87 41.31 221.93 39.01&#10;  L 221.98 36.78&#10;  Q 222.00 36.17 221.38 36.17&#10;  L 217.55 36.17&#10;  A 0.36 0.35 90.0 0 1 217.20 35.81&#10;  L 217.20 32.23&#10;  Q 217.20 31.67 217.76 31.61&#10;  L 221.91 31.16&#10;  Q 222.52 31.10 222.31 30.53&#10;  L 221.13 27.22&#10;  A 0.60 0.59 76.9 0 0 220.51 26.82&#10;  L 207.74 28.19&#10;  Q 207.40 28.23 207.43 28.58&#10;  L 207.80 31.95&#10;  A 0.45 0.45 0.0 0 0 208.25 32.36&#10;  L 212.29 32.36&#10;  Q 212.47 32.36 212.47 32.54&#10;  L 212.47 35.98&#10;  Q 212.47 36.18 212.28 36.18&#10;  L 207.56 36.18&#10;  Q 207.30 36.18 207.30 36.44&#10;  L 207.30 40.74&#10;  Q 207.30 40.91 207.47 40.91&#10;  L 211.70 40.91&#10;  A 0.35 0.35 0.0 0 1 212.03 41.39&#10;  Q 210.10 46.20 206.92 49.91&#10;  Q 206.72 50.15 206.83 50.45&#10;  L 208.71 55.72&#10;  A 0.07 0.07 0.0 0 0 208.83 55.73&#10;  L 212.00 50.25&#10;  Q 212.48 49.42 212.48 50.38&#10;  L 212.48 60.94&#10;  Q 212.48 61.24 212.78 61.24&#10;  L 216.73 61.24&#10;  Q 217.20 61.24 217.20 60.77&#10;  L 217.20 46.96&#10;  Q 217.20 45.69 217.92 46.74&#10;  Q 218.95 48.23 220.68 49.44&#10;  Q 221.00 49.66 221.04 50.04&#10;  L 221.36 53.03&#10;  Q 221.42 53.66 222.05 53.60&#10;  L 232.01 52.53&#10;  Q 232.64 52.46 232.64 53.10&#10;  L 232.64 60.84&#10;  Q 232.64 61.25 233.05 61.25&#10;  L 237.42 61.25&#10;  Q 237.83 61.25 237.83 60.83&#10;  L 237.83 52.50&#10;  Q 237.83 52.13 238.20 52.09&#10;  L 242.85 51.59&#10;  A 0.35 0.35 0.0 0 0 243.16 51.20&#10;  L 242.76 47.40&#10;  A 0.39 0.39 0.0 0 0 242.33 47.05&#10;  L 238.43 47.47&#10;  Q 237.83 47.53 237.83 46.93"/>
<path stroke="#8da1ca" d="&#10;  M 259.35 36.82&#10;  L 261.23 36.82&#10;  A 0.63 0.63 0.0 0 0 261.86 36.19&#10;  L 261.86 32.78&#10;  Q 261.86 31.89 260.98 31.98&#10;  L 259.47 32.14&#10;  A 0.63 0.60 86.8 0 1 258.80 31.51&#10;  L 258.80 26.18&#10;  Q 258.80 25.82 258.43 25.82&#10;  L 254.41 25.82&#10;  Q 254.08 25.82 254.08 26.15&#10;  L 254.08 31.51&#10;  Q 254.08 32.06 253.51 32.06&#10;  L 250.65 32.06&#10;  A 0.74 0.74 0.0 0 0 249.91 32.80&#10;  L 249.91 36.07&#10;  Q 249.91 37.03 250.87 36.93&#10;  L 253.17 36.68&#10;  Q 254.09 36.58 254.09 37.51&#10;  L 254.09 42.38&#10;  Q 254.09 43.46 253.02 43.57&#10;  L 250.55 43.84&#10;  Q 249.54 43.95 249.65 44.95&#10;  L 250.04 48.58&#10;  Q 250.14 49.52 251.03 49.20&#10;  L 253.42 48.35&#10;  Q 254.08 48.12 254.08 48.81&#10;  L 254.08 55.25&#10;  Q 254.08 55.83 253.61 56.16&#10;  Q 252.31 57.08 250.16 56.43&#10;  A 0.23 0.22 -1.3 0 0 249.88 56.72&#10;  L 251.41 61.00&#10;  A 0.22 0.22 0.0 0 0 251.62 61.15&#10;  Q 254.16 61.16 256.72 60.40&#10;  C 257.86 60.07 258.69 58.72 258.75 57.72&#10;  Q 258.82 56.45 258.82 47.79&#10;  Q 258.82 47.36 259.22 47.22&#10;  L 261.25 46.49&#10;  A 1.04 1.04 0.0 0 0 261.95 45.51&#10;  L 261.95 42.41&#10;  Q 261.95 41.39 260.98 41.73&#10;  L 259.45 42.28&#10;  A 0.48 0.48 0.0 0 1 258.81 41.83&#10;  L 258.81 37.36&#10;  Q 258.81 36.82 259.35 36.82"/>
<path stroke="#8da1ca" d="&#10;  M 277.91 44.43&#10;  Q 276.52 47.42 273.52 49.99&#10;  Q 273.05 50.39 272.66 49.92&#10;  L 268.09 44.43&#10;  A 0.64 0.64 0.0 0 0 267.29 44.29&#10;  L 264.18 46.09&#10;  Q 263.55 46.45 264.02 47.01&#10;  L 268.98 52.95&#10;  A 0.37 0.37 0.0 0 1 268.84 53.53&#10;  L 260.78 56.90&#10;  Q 260.63 56.97 260.71 57.11&#10;  L 263.03 61.12&#10;  Q 263.26 61.52 263.67 61.32&#10;  L 272.97 56.88&#10;  Q 273.41 56.67 273.85 56.89&#10;  L 282.63 61.21&#10;  A 0.21 0.21 0.0 0 0 282.90 61.12&#10;  L 285.44 56.74&#10;  A 0.18 0.17 -65.3 0 0 285.35 56.49&#10;  L 278.19 53.59&#10;  Q 277.54 53.33 278.00 52.80&#10;  Q 278.47 52.25 280.59 49.62&#10;  Q 284.81 44.41 284.03 39.68&#10;  Q 283.95 39.21 283.48 39.21&#10;  L 276.41 39.21&#10;  Q 276.09 39.21 276.09 38.90&#10;  L 276.09 35.58&#10;  Q 276.09 35.26 276.41 35.26&#10;  L 284.59 35.26&#10;  Q 284.95 35.26 284.95 34.90&#10;  L 284.95 31.24&#10;  A 0.42 0.42 0.0 0 0 284.53 30.82&#10;  L 276.69 30.82&#10;  Q 276.09 30.82 276.09 30.22&#10;  L 276.09 26.18&#10;  Q 276.09 25.78 275.69 25.78&#10;  L 271.26 25.78&#10;  A 0.36 0.35 -0.0 0 0 270.90 26.13&#10;  L 270.90 30.34&#10;  Q 270.90 30.82 270.42 30.82&#10;  L 263.24 30.82&#10;  Q 262.82 30.82 262.82 31.24&#10;  L 262.82 34.66&#10;  Q 262.82 35.25 263.41 35.25&#10;  L 270.56 35.25&#10;  Q 270.89 35.25 270.89 35.58&#10;  L 270.89 38.87&#10;  Q 270.89 39.22 270.54 39.22&#10;  L 263.28 39.22&#10;  Q 262.84 39.22 262.84 39.66&#10;  L 262.84 43.29&#10;  A 0.52 0.52 0.0 0 0 263.36 43.81&#10;  L 277.52 43.81&#10;  Q 278.19 43.81 277.91 44.43"/>
<path stroke="#8da1ca" d="&#10;  M 150.98 36.11&#10;  C 151.90 35.07 154.62 32.37 154.76 30.52&#10;  Q 154.89 28.77 154.75 27.81&#10;  Q 154.67 27.33 154.19 27.33&#10;  L 137.48 27.33&#10;  A 0.44 0.44 0.0 0 0 137.04 27.77&#10;  L 137.04 31.26&#10;  A 0.50 0.49 90.0 0 0 137.53 31.76&#10;  L 147.71 31.76&#10;  Q 149.19 31.76 148.08 32.74&#10;  Q 143.02 37.22 135.69 39.80&#10;  A 0.68 0.68 0.0 0 0 135.33 40.79&#10;  L 137.17 43.99&#10;  A 1.12 1.12 0.0 0 0 138.70 44.40&#10;  L 146.60 39.84&#10;  A 0.42 0.42 0.0 0 1 147.02 39.84&#10;  L 154.48 44.15&#10;  A 1.02 1.01 29.7 0 0 155.86 43.78&#10;  L 157.52 40.91&#10;  Q 157.86 40.32 157.25 40.02&#10;  L 151.16 37.02&#10;  Q 150.47 36.68 150.98 36.11"/>
<path stroke="#8da1ca" d="&#10;  M 231.8767 33.7261&#10;  A 0.48 0.48 0.0 0 0 231.8376 33.0484&#10;  L 226.6559 28.4317&#10;  A 0.48 0.48 0.0 0 0 225.9782 28.4708&#10;  L 223.6233 31.1139&#10;  A 0.48 0.48 0.0 0 0 223.6624 31.7916&#10;  L 228.8441 36.4083&#10;  A 0.48 0.48 0.0 0 0 229.5218 36.3692&#10;  L 231.8767 33.7261"/>
<path stroke="#8da1ca" d="&#10;  M 146.51 60.17&#10;  Q 156.54 60.18 157.02 60.18&#10;  Q 157.66 60.17 157.66 59.74&#10;  L 157.69 56.76&#10;  Q 157.70 56.07 157.01 56.07&#10;  L 149.48 56.07&#10;  Q 149.12 56.07 149.12 55.71&#10;  L 149.12 50.01&#10;  Q 149.12 49.66 149.47 49.66&#10;  L 155.48 49.66&#10;  Q 155.92 49.66 155.92 49.22&#10;  L 155.92 45.74&#10;  Q 155.92 45.21 155.39 45.21&#10;  Q 151.13 45.22 146.53 45.20&#10;  Q 141.93 45.21 137.67 45.19&#10;  Q 137.14 45.19 137.13 45.72&#10;  L 137.13 49.20&#10;  Q 137.12 49.64 137.56 49.64&#10;  L 143.57 49.65&#10;  Q 143.92 49.65 143.92 50.00&#10;  L 143.91 55.70&#10;  Q 143.91 56.06 143.55 56.06&#10;  L 136.02 56.05&#10;  Q 135.33 56.04 135.34 56.73&#10;  L 135.36 59.71&#10;  Q 135.36 60.14 136.00 60.15&#10;  Q 136.48 60.16 146.51 60.17"/>
<path stroke="#f4d7a1" d="&#10;  M 61.78 79.12&#10;  A 0.23 0.23 0.0 0 0 61.98 79.46&#10;  L 71.36 79.46&#10;  Q 71.93 79.46 71.93 78.90&#10;  L 71.93 64.65&#10;  A 0.75 0.74 5.1 0 0 71.31 63.92&#10;  Q 70.76 63.82 70.26 63.93&#10;  Q 69.82 64.02 69.27 65.07&#10;  Q 67.81 67.84 61.78 79.12"/>
<path stroke="#8da1ca" d="&#10;  M 168.52 73.61&#10;  L 168.53 69.77&#10;  Q 168.53 69.24 168.00 69.24&#10;  L 167.61 69.24&#10;  A 0.50 0.50 0.0 0 0 167.11 69.73&#10;  L 167.08 81.52&#10;  Q 167.08 82.04 167.61 82.05&#10;  L 167.99 82.05&#10;  Q 168.54 82.05 168.55 81.50&#10;  L 168.56 76.64&#10;  Q 168.56 74.82 170.38 74.65&#10;  L 170.80 74.61&#10;  Q 172.56 74.45 172.55 76.21&#10;  L 172.54 81.63&#10;  Q 172.54 82.05 172.96 82.05&#10;  L 173.34 82.05&#10;  Q 173.95 82.05 173.97 81.44&#10;  Q 174.07 77.84 173.97 75.96&#10;  C 173.85 73.91 172.31 72.91 170.44 73.52&#10;  Q 169.34 73.87 169.00 73.97&#10;  Q 168.52 74.13 168.52 73.61"/>
<path stroke="#8da1ca" d="&#10;  M 224.87 73.63&#10;  L 224.87 69.77&#10;  Q 224.87 69.24 224.34 69.24&#10;  L 223.95 69.24&#10;  A 0.50 0.50 0.0 0 0 223.45 69.74&#10;  L 223.45 81.57&#10;  Q 223.45 82.10 223.98 82.10&#10;  L 224.36 82.10&#10;  Q 224.92 82.10 224.92 81.55&#10;  L 224.92 76.67&#10;  Q 224.92 74.84 226.74 74.67&#10;  L 227.17 74.63&#10;  Q 228.93 74.46 228.93 76.23&#10;  L 228.93 81.67&#10;  Q 228.93 82.09 229.35 82.09&#10;  L 229.74 82.09&#10;  Q 230.35 82.09 230.37 81.48&#10;  Q 230.46 77.86 230.35 75.97&#10;  C 230.23 73.92 228.68 72.92 226.80 73.53&#10;  Q 225.70 73.89 225.36 73.99&#10;  Q 224.87 74.15 224.87 73.63"/>
<path stroke="#8da1ca" d="&#10;  M 253.91 80.01&#10;  L 253.91 69.82&#10;  A 0.61 0.61 0.0 0 0 253.30 69.21&#10;  L 252.91 69.21&#10;  Q 252.46 69.21 252.45 69.66&#10;  Q 252.35 74.62 252.42 80.26&#10;  Q 252.44 82.31 254.31 82.28&#10;  Q 254.94 82.27 254.74 81.68&#10;  Q 254.62 81.34 254.25 80.92&#10;  Q 253.91 80.53 253.91 80.01"/>
<path stroke="#8da1ca" d="&#10;  M 138.3669 70.6878&#10;  A 0.97 0.82 4.6 0 0 137.4658 69.7926&#10;  A 0.97 0.82 4.6 0 0 136.4331 70.5322&#10;  A 0.97 0.82 4.6 0 0 137.3342 71.4274&#10;  A 0.97 0.82 4.6 0 0 138.3669 70.6878"/>
<path stroke="#8da1ca" d="&#10;  M 130.68 82.13&#10;  Q 131.03 81.75 131.90 81.43&#10;  Q 132.37 81.27 132.69 80.88&#10;  C 135.82 77.07 134.65 69.63 128.43 70.28&#10;  C 126.73 70.46 125.33 71.80 124.85 73.31&#10;  Q 122.80 79.83 128.20 82.18&#10;  Q 128.68 82.39 128.98 82.82&#10;  Q 130.72 85.38 134.15 84.78&#10;  Q 134.48 84.72 134.48 84.39&#10;  L 134.48 84.09&#10;  Q 134.48 83.69 134.08 83.73&#10;  Q 132.18 83.91 130.77 82.91&#10;  Q 130.29 82.57 130.68 82.13"/>
<path stroke="#8da1ca" d="&#10;  M 201.56 82.06&#10;  Q 201.75 82.06 201.88 82.03&#10;  Q 202.29 81.92 202.29 81.50&#10;  L 202.29 72.10&#10;  Q 202.29 71.54 202.85 71.54&#10;  L 205.55 71.54&#10;  A 0.31 0.31 0.0 0 0 205.86 71.23&#10;  L 205.86 70.92&#10;  Q 205.86 70.41 205.35 70.40&#10;  Q 203.45 70.35 201.55 70.37&#10;  Q 199.64 70.35 197.74 70.40&#10;  Q 197.23 70.42 197.23 70.93&#10;  L 197.23 71.24&#10;  A 0.31 0.31 0.0 0 0 197.54 71.55&#10;  L 200.24 71.54&#10;  Q 200.80 71.54 200.81 72.10&#10;  L 200.82 81.50&#10;  Q 200.82 81.92 201.24 82.03&#10;  Q 201.36 82.06 201.56 82.06"/>
<path stroke="#f4d7a1" d="&#10;  M 74.20 71.32&#10;  Q 73.94 70.89 73.80 70.80&#10;  Q 73.07 70.34 73.06 71.13&#10;  L 72.99 78.73&#10;  Q 72.98 79.49 73.74 79.49&#10;  L 79.70 79.49&#10;  Q 80.29 79.49 79.92 79.03&#10;  Q 75.48 73.45 74.20 71.32"/>
<path stroke="#a1c7e7" d="&#10;  M 62.3834 73.6467&#10;  A 0.50 0.50 0.0 0 0 61.8473 73.1856&#10;  L 52.1147 73.9174&#10;  A 0.50 0.50 0.0 0 0 51.6536 74.4534&#10;  L 51.6566 74.4933&#10;  A 0.50 0.50 0.0 0 0 52.1927 74.9544&#10;  L 61.9253 74.2226&#10;  A 0.50 0.50 0.0 0 0 62.3864 73.6866&#10;  L 62.3834 73.6467"/>
<path stroke="#a1c7e7" d="&#10;  M 91.2183 74.4330&#10;  A 0.49 0.49 0.0 0 0 90.7618 73.9117&#10;  L 79.9058 73.1906&#10;  A 0.49 0.49 0.0 0 0 79.3844 73.6470&#10;  L 79.3817 73.6870&#10;  A 0.49 0.49 0.0 0 0 79.8382 74.2083&#10;  L 90.6942 74.9294&#10;  A 0.49 0.49 0.0 0 0 91.2156 74.4730&#10;  L 91.2183 74.4330"/>
<path stroke="#8da1ca" d="&#10;  M 138.1467 73.8613&#10;  A 0.51 0.51 0.0 0 0 137.6376 73.3504&#10;  L 137.1776 73.3496&#10;  A 0.51 0.51 0.0 0 0 136.6667 73.8587&#10;  L 136.6533 81.5387&#10;  A 0.51 0.51 0.0 0 0 137.1624 82.0496&#10;  L 137.6224 82.0504&#10;  A 0.51 0.51 0.0 0 0 138.1333 81.5413&#10;  L 138.1467 73.8613"/>
<path stroke="#8da1ca" d="&#10;  M 142.30 73.92&#10;  Q 142.08 73.54 141.72 73.36&#10;  Q 141.03 73.01 141.03 73.78&#10;  L 141.03 81.64&#10;  Q 141.03 82.08 141.46 82.08&#10;  L 141.86 82.08&#10;  Q 142.49 82.08 142.49 81.45&#10;  L 142.47 76.74&#10;  Q 142.47 74.89 144.36 74.63&#10;  Q 144.51 74.60 144.56 74.60&#10;  Q 146.46 74.36 146.47 76.27&#10;  L 146.50 81.55&#10;  Q 146.50 82.08 147.03 82.08&#10;  L 147.40 82.08&#10;  Q 147.92 82.08 147.92 81.56&#10;  L 147.92 75.34&#10;  A 1.24 1.23 -65.9 0 0 147.61 74.52&#10;  Q 145.73 72.41 143.06 74.11&#10;  Q 142.59 74.41 142.30 73.92"/>
<path stroke="#8da1ca" d="&#10;  M 156.68 74.49&#10;  Q 157.19 74.49 157.24 74.46&#10;  Q 158.83 73.52 157.03 73.44&#10;  Q 154.26 73.32 153.58 73.40&#10;  Q 149.63 73.86 150.63 77.15&#10;  A 2.66 2.64 -88.7 0 0 152.24 78.85&#10;  Q 155.62 80.10 156.63 77.01&#10;  Q 156.74 76.65 156.64 75.99&#10;  Q 156.56 75.50 156.33 75.05&#10;  Q 156.05 74.49 156.68 74.49"/>
<path stroke="#8da1ca" d="&#10;  M 161.10 74.65&#10;  Q 162.33 74.11 163.99 74.87&#10;  A 0.42 0.42 0.0 0 0 164.53 74.70&#10;  L 164.67 74.44&#10;  Q 164.80 74.22 164.59 74.08&#10;  Q 162.51 72.76 160.50 73.74&#10;  Q 158.99 74.47 159.21 75.93&#10;  Q 159.33 76.72 160.58 77.47&#10;  Q 161.44 77.99 163.12 78.95&#10;  A 1.07 1.07 0.0 0 1 162.94 80.88&#10;  Q 161.46 81.39 159.76 80.27&#10;  Q 159.51 80.10 159.27 80.29&#10;  L 159.06 80.47&#10;  A 0.40 0.40 0.0 0 0 159.07 81.09&#10;  Q 162.05 83.33 164.52 81.16&#10;  A 1.91 1.91 0.0 0 0 164.22 78.07&#10;  L 161.02 76.22&#10;  A 0.88 0.88 0.0 0 1 161.10 74.65"/>
<path stroke="#8da1ca" d="&#10;  M 181.90 81.61&#10;  Q 182.04 81.90 182.38 82.05&#10;  Q 182.92 82.29 182.93 81.70&#10;  C 182.98 78.07 184.12 72.31 178.73 73.53&#10;  Q 177.29 73.85 176.77 74.35&#10;  A 0.29 0.29 0.0 0 0 176.78 74.78&#10;  L 177.04 74.99&#10;  Q 177.28 75.19 177.55 75.04&#10;  Q 179.36 74.01 180.70 74.77&#10;  Q 181.46 75.20 181.46 76.07&#10;  A 0.60 0.60 0.0 0 1 180.95 76.66&#10;  C 178.49 77.03 175.09 77.90 176.68 81.25&#10;  Q 176.91 81.74 177.42 81.94&#10;  Q 179.08 82.59 180.97 81.34&#10;  Q 181.59 80.93 181.90 81.61"/>
<path stroke="#8da1ca" d="&#10;  M 186.98 73.91&#10;  Q 186.76 73.53 186.40 73.34&#10;  Q 185.71 72.99 185.70 73.76&#10;  L 185.67 81.64&#10;  Q 185.67 82.09 186.10 82.09&#10;  L 186.50 82.09&#10;  Q 187.13 82.09 187.13 81.46&#10;  L 187.13 76.74&#10;  Q 187.14 74.88 189.04 74.63&#10;  Q 189.19 74.60 189.24 74.60&#10;  Q 191.15 74.37 191.15 76.28&#10;  L 191.16 81.58&#10;  Q 191.15 82.11 191.69 82.11&#10;  L 192.06 82.11&#10;  Q 192.58 82.12 192.58 81.59&#10;  L 192.61 75.36&#10;  A 1.24 1.24 0.0 0 0 192.30 74.53&#10;  Q 190.42 72.41 187.74 74.10&#10;  Q 187.26 74.40 186.98 73.91"/>
<path stroke="#8da1ca" d="&#10;  M 207.77 78.10&#10;  L 212.29 78.10&#10;  Q 213.16 78.10 213.16 77.24&#10;  L 213.16 75.97&#10;  Q 213.16 74.12 211.37 73.63&#10;  Q 206.92 72.42 206.07 76.79&#10;  C 205.36 80.45 208.67 83.44 212.25 81.72&#10;  Q 212.62 81.54 212.62 81.13&#10;  L 212.62 80.76&#10;  A 0.26 0.25 -11.6 0 0 212.26 80.53&#10;  Q 208.59 82.04 207.38 78.65&#10;  A 0.41 0.41 0.0 0 1 207.77 78.10"/>
<path stroke="#8da1ca" d="&#10;  M 214.68 77.83&#10;  C 214.78 81.36 217.99 83.16 221.17 81.39&#10;  Q 221.44 81.24 221.41 80.93&#10;  Q 221.39 80.80 221.31 80.64&#10;  Q 221.13 80.29 220.48 80.48&#10;  Q 220.43 80.49 219.48 80.81&#10;  C 217.51 81.45 216.28 79.53 216.23 77.78&#10;  C 216.18 76.04 217.31 74.05 219.31 74.58&#10;  Q 220.27 74.85 220.32 74.85&#10;  Q 220.98 75.01 221.14 74.65&#10;  Q 221.21 74.48 221.23 74.35&#10;  Q 221.24 74.04 220.96 73.91&#10;  C 217.69 72.32 214.59 74.29 214.68 77.83"/>
<path stroke="#8da1ca" d="&#10;  M 234.36 73.90&#10;  Q 234.14 73.52 233.78 73.34&#10;  Q 233.08 72.99 233.09 73.76&#10;  L 233.11 81.63&#10;  Q 233.11 82.07 233.55 82.07&#10;  L 233.95 82.07&#10;  Q 234.58 82.06 234.57 81.43&#10;  L 234.54 76.72&#10;  Q 234.53 74.87 236.42 74.60&#10;  Q 236.57 74.57 236.62 74.57&#10;  Q 238.52 74.33 238.54 76.24&#10;  L 238.59 81.52&#10;  Q 238.59 82.05 239.12 82.05&#10;  L 239.49 82.05&#10;  Q 240.01 82.05 240.01 81.53&#10;  L 239.99 75.30&#10;  A 1.24 1.23 -66.1 0 0 239.67 74.48&#10;  Q 237.78 72.38 235.12 74.09&#10;  Q 234.65 74.39 234.36 73.90"/>
<path stroke="#8da1ca" d="&#10;  M 246.2301 82.1694&#10;  A 4.46 4.05 89.1 0 0 250.2095 77.6464&#10;  A 4.46 4.05 89.1 0 0 246.0899 73.2506&#10;  A 4.46 4.05 89.1 0 0 242.1105 77.7736&#10;  A 4.46 4.05 89.1 0 0 246.2301 82.1694"/>
<path stroke="#8da1ca" d="&#10;  M 260.2934 82.1599&#10;  A 4.46 4.06 89.7 0 0 264.3299 77.6787&#10;  A 4.46 4.06 89.7 0 0 260.2466 73.2401&#10;  A 4.46 4.06 89.7 0 0 256.2101 77.7213&#10;  A 4.46 4.06 89.7 0 0 260.2934 82.1599"/>
<path stroke="#8da1ca" d="&#10;  M 272.60 74.49&#10;  Q 273.11 74.50 273.16 74.47&#10;  Q 274.78 73.54 272.97 73.44&#10;  Q 270.18 73.28 269.49 73.35&#10;  Q 265.51 73.76 266.47 77.09&#10;  A 2.68 2.66 -87.9 0 0 268.07 78.82&#10;  Q 271.46 80.13 272.52 77.03&#10;  Q 272.63 76.67 272.54 76.00&#10;  Q 272.47 75.51 272.24 75.05&#10;  Q 271.97 74.48 272.60 74.49"/>
<path stroke="#8da1ca" d="&#10;  M 278.30 79.75&#10;  L 276.11 73.62&#10;  A 0.50 0.49 69.9 0 0 275.48 73.32&#10;  L 275.05 73.47&#10;  Q 274.67 73.61 274.81 73.98&#10;  Q 276.50 78.45 277.54 80.96&#10;  C 278.32 82.86 277.51 84.29 275.49 84.57&#10;  A 0.51 0.50 -3.9 0 0 275.05 85.07&#10;  L 275.05 85.46&#10;  Q 275.05 85.70 275.29 85.70&#10;  Q 277.78 85.72 278.50 84.26&#10;  Q 279.81 81.65 282.20 73.76&#10;  Q 282.35 73.26 281.80 73.34&#10;  L 281.51 73.38&#10;  Q 280.97 73.46 280.80 73.97&#10;  L 278.91 79.74&#10;  Q 278.61 80.63 278.30 79.75"/>
<path stroke="#8da1ca" d="&#10;  M 151.67 81.89&#10;  Q 149.83 82.61 150.15 84.30&#10;  A 1.46 1.45 5.9 0 0 151.02 85.36&#10;  Q 154.55 86.84 157.50 84.45&#10;  A 1.90 1.90 0.0 0 0 156.30 81.07&#10;  L 152.91 81.07&#10;  A 0.77 0.76 78.2 0 1 152.21 80.61&#10;  Q 151.99 80.13 152.05 79.46&#10;  A 0.36 0.36 0.0 0 0 151.57 79.09&#10;  L 151.19 79.23&#10;  A 0.82 0.82 0.0 0 0 150.79 79.54&#10;  Q 149.94 80.85 151.39 81.02&#10;  Q 151.58 81.05 151.72 81.15&#10;  Q 151.87 81.27 151.91 81.43&#10;  Q 151.99 81.76 151.67 81.89"/>
<path stroke="#8da1ca" d="&#10;  M 267.50 81.85&#10;  Q 265.65 82.55 265.95 84.25&#10;  A 1.47 1.45 6.4 0 0 266.82 85.32&#10;  Q 270.34 86.84 273.32 84.47&#10;  A 1.91 1.91 0.0 0 0 272.15 81.07&#10;  L 268.75 81.04&#10;  A 0.77 0.76 78.7 0 1 268.05 80.57&#10;  Q 267.83 80.08 267.90 79.41&#10;  A 0.36 0.36 0.0 0 0 267.42 79.04&#10;  L 267.04 79.18&#10;  A 0.82 0.82 0.0 0 0 266.64 79.48&#10;  Q 265.77 80.79 267.23 80.97&#10;  Q 267.42 81.00 267.56 81.11&#10;  Q 267.70 81.23 267.74 81.39&#10;  Q 267.82 81.72 267.50 81.85"/>
<path stroke="#a1c7e7" d="&#10;  M 58.8971 79.8351&#10;  A 0.38 0.38 0.0 0 0 58.4903 79.4839&#10;  L 48.7565 80.1987&#10;  A 0.38 0.38 0.0 0 0 48.4053 80.6056&#10;  L 48.4229 80.8449&#10;  A 0.38 0.38 0.0 0 0 48.8297 81.1961&#10;  L 58.5635 80.4813&#10;  A 0.38 0.38 0.0 0 0 58.9147 80.0744&#10;  L 58.8971 79.8351"/>
<path stroke="#a1c7e7" d="&#10;  M 94.7671 80.7188&#10;  A 0.47 0.47 0.0 0 0 94.3311 80.2172&#10;  L 83.5773 79.4652&#10;  A 0.47 0.47 0.0 0 0 83.0757 79.9013&#10;  L 83.0729 79.9412&#10;  A 0.47 0.47 0.0 0 0 83.5089 80.4428&#10;  L 94.2627 81.1948&#10;  A 0.47 0.47 0.0 0 0 94.7643 80.7587&#10;  L 94.7671 80.7188"/>
<path stroke="#f4d7a1" d="&#10;  M 70.99 83.94&#10;  Q 76.02 83.93 81.01 82.75&#10;  A 1.11 1.11 0.0 0 0 81.85 81.53&#10;  Q 81.75 80.85 80.93 80.98&#10;  Q 75.92 81.77 70.99 81.78&#10;  Q 66.05 81.79 61.04 81.01&#10;  Q 60.22 80.88 60.12 81.56&#10;  A 1.11 1.11 0.0 0 0 60.97 82.78&#10;  Q 65.96 83.95 70.99 83.94"/>
<path stroke="#f4d7a1" d="&#10;  M 69.54 77.42&#10;  A 0.32 0.31 90.0 0 0 69.85 77.10&#10;  L 69.85 69.56&#10;  Q 69.85 68.73 69.44 69.45&#10;  L 65.24 76.72&#10;  Q 64.84 77.42 65.65 77.42&#10;  L 69.54 77.42"/>
<path stroke="#8da1ca" d="&#10;  M 129.3300 80.9400&#10;  A 4.75 3.55 90.0 0 0 132.8800 76.1900&#10;  A 4.75 3.55 90.0 0 0 129.3300 71.4400&#10;  A 4.75 3.55 90.0 0 0 125.7800 76.1900&#10;  A 4.75 3.55 90.0 0 0 129.3300 80.9400"/>
<path stroke="#f4d7a1" d="&#10;  M 76.72 77.53&#10;  Q 75.95 76.11 74.94 75.29&#10;  Q 74.52 74.95 74.52 75.48&#10;  L 74.52 77.23&#10;  Q 74.52 77.75 75.02 77.88&#10;  Q 75.73 78.06 76.53 77.92&#10;  A 0.27 0.27 0.0 0 0 76.72 77.53"/>
<path stroke="#8da1ca" d="&#10;  M 155.56 76.27&#10;  A 1.94 1.94 0.0 0 0 153.62 74.33&#10;  A 1.94 1.94 0.0 0 0 151.68 76.27&#10;  A 1.94 1.94 0.0 0 0 153.62 78.21&#10;  A 1.94 1.94 0.0 0 0 155.56 76.27"/>
<path stroke="#8da1ca" d="&#10;  M 181.5817 78.2537&#10;  A 2.22 1.47 -29.0 0 0 178.9273 78.0443&#10;  A 2.22 1.47 -29.0 0 0 177.6983 80.4063&#10;  A 2.22 1.47 -29.0 0 0 180.3527 80.6157&#10;  A 2.22 1.47 -29.0 0 0 181.5817 78.2537"/>
<path stroke="#8da1ca" d="&#10;  M 207.70 77.00&#10;  L 211.74 77.04&#10;  A 0.24 0.24 0.0 0 0 211.98 76.80&#10;  L 211.98 76.65&#10;  A 2.17 2.14 -89.4 0 0 209.86 74.46&#10;  L 209.62 74.46&#10;  A 2.17 2.14 -89.4 0 0 207.46 76.61&#10;  L 207.46 76.76&#10;  A 0.24 0.24 0.0 0 0 207.70 77.00"/>
<path stroke="#8da1ca" d="&#10;  M 246.1600 80.9100&#10;  A 3.25 2.56 90.0 0 0 248.7200 77.6600&#10;  A 3.25 2.56 90.0 0 0 246.1600 74.4100&#10;  A 3.25 2.56 90.0 0 0 243.6000 77.6600&#10;  A 3.25 2.56 90.0 0 0 246.1600 80.9100"/>
<path stroke="#8da1ca" d="&#10;  M 260.2857 80.9100&#10;  A 3.24 2.55 89.9 0 0 262.8300 77.6655&#10;  A 3.24 2.55 89.9 0 0 260.2743 74.4300&#10;  A 3.24 2.55 89.9 0 0 257.7300 77.6745&#10;  A 3.24 2.55 89.9 0 0 260.2857 80.9100"/>
<path stroke="#8da1ca" d="&#10;  M 271.38 76.27&#10;  A 1.92 1.92 0.0 0 0 269.46 74.35&#10;  A 1.92 1.92 0.0 0 0 267.54 76.27&#10;  A 1.92 1.92 0.0 0 0 269.46 78.19&#10;  A 1.92 1.92 0.0 0 0 271.38 76.27"/>
<path stroke="#8da1ca" d="&#10;  M 151.74 82.63&#10;  A 1.08 1.08 0.0 0 0 151.86 84.45&#10;  Q 154.31 85.80 156.40 83.84&#10;  A 0.76 0.76 0.0 0 0 156.15 82.57&#10;  Q 153.30 81.49 151.74 82.63"/>
<path stroke="#8da1ca" d="&#10;  M 267.58 82.64&#10;  A 1.08 1.07 -48.8 0 0 267.69 84.45&#10;  Q 270.13 85.80 272.21 83.85&#10;  A 0.76 0.75 -56.1 0 0 271.96 82.59&#10;  Q 269.13 81.51 267.58 82.64"/>
</g>
<path fill="#ffffff" d="&#10;  M 312.00 0.00&#10;  L 312.00 106.00&#10;  L 0.00 106.00&#10;  L 0.00 0.00&#10;  L 312.00 0.00&#10;  Z&#10;  M 77.40 44.21&#10;  L 60.80 15.47&#10;  A 0.39 0.39 0.0 0 0 60.12 15.47&#10;  L 21.15 82.96&#10;  Q 20.96 83.30 21.34 83.30&#10;  L 43.59 83.30&#10;  A 1.14 1.14 0.0 0 0 44.58 82.73&#10;  L 61.33 53.70&#10;  A 0.47 0.47 0.0 0 1 62.15 53.70&#10;  L 67.41 62.82&#10;  Q 67.72 63.34 68.02 62.82&#10;  L 77.39 46.60&#10;  A 0.17 0.17 0.0 0 1 77.69 46.60&#10;  L 98.62 82.84&#10;  A 1.30 1.29 -14.6 0 0 99.75 83.50&#10;  L 114.97 83.50&#10;  Q 115.43 83.50 115.20 83.10&#10;  L 85.60 32.14&#10;  Q 85.37 31.75 84.99 32.00&#10;  Q 84.90 32.06 84.78 32.27&#10;  Q 80.43 39.66 77.81 44.21&#10;  A 0.24 0.23 -44.6 0 1 77.40 44.21&#10;  Z&#10;  M 129.54 29.62&#10;  L 130.34 26.45&#10;  A 0.41 0.40 -82.8 0 0 129.95 25.94&#10;  L 126.20 25.94&#10;  A 0.38 0.38 0.0 0 0 125.83 26.23&#10;  L 124.95 29.71&#10;  Q 124.82 30.21 124.32 30.21&#10;  L 122.17 30.21&#10;  Q 121.59 30.21 121.59 30.79&#10;  L 121.59 33.95&#10;  Q 121.59 34.49 122.13 34.49&#10;  L 123.32 34.49&#10;  A 0.49 0.49 0.0 0 1 123.80 35.08&#10;  Q 123.19 37.89 122.30 41.07&#10;  Q 121.65 43.36 121.92 46.97&#10;  Q 121.96 47.50 122.49 47.50&#10;  L 127.92 47.50&#10;  Q 128.33 47.50 128.33 47.91&#10;  L 128.33 50.59&#10;  Q 128.33 51.01 127.91 51.01&#10;  L 122.05 51.01&#10;  A 0.39 0.38 -0.0 0 0 121.66 51.39&#10;  L 121.66 55.19&#10;  Q 121.66 55.48 121.95 55.48&#10;  L 128.00 55.48&#10;  Q 128.33 55.48 128.33 55.80&#10;  L 128.33 60.81&#10;  A 0.46 0.45 90.0 0 0 128.78 61.27&#10;  L 132.25 61.27&#10;  Q 132.76 61.27 132.76 60.76&#10;  L 132.76 55.45&#10;  Q 132.76 54.91 133.30 54.91&#10;  L 135.33 54.91&#10;  Q 136.21 54.91 136.21 54.03&#10;  L 136.21 51.22&#10;  Q 136.21 50.55 135.54 50.55&#10;  L 133.26 50.55&#10;  Q 132.75 50.55 132.75 50.03&#10;  L 132.75 48.08&#10;  Q 132.75 47.50 133.33 47.50&#10;  L 135.04 47.50&#10;  Q 135.81 47.50 135.81 46.73&#10;  L 135.81 43.99&#10;  Q 135.81 43.21 135.02 43.21&#10;  L 133.21 43.21&#10;  Q 132.75 43.21 132.75 42.75&#10;  L 132.75 37.07&#10;  Q 132.75 36.64 132.33 36.64&#10;  L 128.92 36.64&#10;  A 0.59 0.58 0.0 0 0 128.33 37.22&#10;  L 128.33 42.64&#10;  A 0.60 0.60 0.0 0 1 127.73 43.24&#10;  L 126.72 43.24&#10;  A 0.41 0.40 -83.2 0 1 126.33 42.74&#10;  L 128.28 35.03&#10;  Q 128.42 34.51 128.95 34.51&#10;  L 135.76 34.51&#10;  Q 136.24 34.51 136.24 34.04&#10;  L 136.24 30.86&#10;  Q 136.24 30.22 135.60 30.22&#10;  L 130.01 30.22&#10;  Q 129.39 30.22 129.54 29.62&#10;  Z&#10;  M 179.59 53.21&#10;  A 0.39 0.39 0.0 0 1 179.20 53.60&#10;  L 172.18 53.60&#10;  A 0.39 0.39 0.0 0 1 171.79 53.21&#10;  L 171.79 33.04&#10;  A 0.39 0.39 0.0 0 0 171.40 32.65&#10;  L 166.98 32.65&#10;  A 0.39 0.39 0.0 0 0 166.59 33.04&#10;  L 166.59 57.95&#10;  A 0.39 0.39 0.0 0 0 166.98 58.34&#10;  L 192.46 58.34&#10;  A 0.39 0.39 0.0 0 1 192.85 58.73&#10;  L 192.85 60.85&#10;  A 0.39 0.39 0.0 0 0 193.24 61.24&#10;  L 197.66 61.24&#10;  A 0.39 0.39 0.0 0 0 198.05 60.85&#10;  L 198.05 33.04&#10;  A 0.39 0.39 0.0 0 0 197.66 32.65&#10;  L 193.24 32.65&#10;  A 0.39 0.39 0.0 0 0 192.85 33.04&#10;  L 192.85 53.21&#10;  A 0.39 0.39 0.0 0 1 192.46 53.60&#10;  L 185.48 53.60&#10;  A 0.39 0.39 0.0 0 1 185.09 53.21&#10;  L 185.09 26.17&#10;  A 0.39 0.39 0.0 0 0 184.70 25.78&#10;  L 179.98 25.78&#10;  A 0.39 0.39 0.0 0 0 179.59 26.17&#10;  L 179.59 53.21&#10;  Z&#10;  M 237.83 46.93&#10;  L 237.83 26.19&#10;  Q 237.83 25.79 237.44 25.79&#10;  L 233.05 25.79&#10;  Q 232.64 25.79 232.64 26.20&#10;  L 232.64 47.50&#10;  Q 232.64 47.85 232.29 47.89&#10;  L 222.00 48.99&#10;  Q 220.45 49.15 221.62 48.12&#10;  L 223.03 46.88&#10;  Q 223.55 46.43 223.02 45.99&#10;  L 219.21 42.84&#10;  Q 218.82 42.53 218.41 42.81&#10;  Q 218.16 42.99 217.74 43.51&#10;  Q 217.38 43.96 217.26 43.40&#10;  Q 217.02 42.30 217.22 41.44&#10;  Q 217.35 40.91 217.90 40.91&#10;  L 221.23 40.91&#10;  Q 221.99 40.91 222.58 41.39&#10;  L 227.86 45.74&#10;  Q 228.20 46.02 228.48 45.68&#10;  L 230.75 42.92&#10;  A 0.47 0.47 0.0 0 0 230.69 42.25&#10;  L 225.41 37.90&#10;  Q 225.04 37.59 224.68 37.91&#10;  Q 223.59 38.90 223.22 39.42&#10;  Q 221.87 41.31 221.93 39.01&#10;  L 221.98 36.78&#10;  Q 222.00 36.17 221.38 36.17&#10;  L 217.55 36.17&#10;  A 0.36 0.35 90.0 0 1 217.20 35.81&#10;  L 217.20 32.23&#10;  Q 217.20 31.67 217.76 31.61&#10;  L 221.91 31.16&#10;  Q 222.52 31.10 222.31 30.53&#10;  L 221.13 27.22&#10;  A 0.60 0.59 76.9 0 0 220.51 26.82&#10;  L 207.74 28.19&#10;  Q 207.40 28.23 207.43 28.58&#10;  L 207.80 31.95&#10;  A 0.45 0.45 0.0 0 0 208.25 32.36&#10;  L 212.29 32.36&#10;  Q 212.47 32.36 212.47 32.54&#10;  L 212.47 35.98&#10;  Q 212.47 36.18 212.28 36.18&#10;  L 207.56 36.18&#10;  Q 207.30 36.18 207.30 36.44&#10;  L 207.30 40.74&#10;  Q 207.30 40.91 207.47 40.91&#10;  L 211.70 40.91&#10;  A 0.35 0.35 0.0 0 1 212.03 41.39&#10;  Q 210.10 46.20 206.92 49.91&#10;  Q 206.72 50.15 206.83 50.45&#10;  L 208.71 55.72&#10;  A 0.07 0.07 0.0 0 0 208.83 55.73&#10;  L 212.00 50.25&#10;  Q 212.48 49.42 212.48 50.38&#10;  L 212.48 60.94&#10;  Q 212.48 61.24 212.78 61.24&#10;  L 216.73 61.24&#10;  Q 217.20 61.24 217.20 60.77&#10;  L 217.20 46.96&#10;  Q 217.20 45.69 217.92 46.74&#10;  Q 218.95 48.23 220.68 49.44&#10;  Q 221.00 49.66 221.04 50.04&#10;  L 221.36 53.03&#10;  Q 221.42 53.66 222.05 53.60&#10;  L 232.01 52.53&#10;  Q 232.64 52.46 232.64 53.10&#10;  L 232.64 60.84&#10;  Q 232.64 61.25 233.05 61.25&#10;  L 237.42 61.25&#10;  Q 237.83 61.25 237.83 60.83&#10;  L 237.83 52.50&#10;  Q 237.83 52.13 238.20 52.09&#10;  L 242.85 51.59&#10;  A 0.35 0.35 0.0 0 0 243.16 51.20&#10;  L 242.76 47.40&#10;  A 0.39 0.39 0.0 0 0 242.33 47.05&#10;  L 238.43 47.47&#10;  Q 237.83 47.53 237.83 46.93&#10;  Z&#10;  M 259.35 36.82&#10;  L 261.23 36.82&#10;  A 0.63 0.63 0.0 0 0 261.86 36.19&#10;  L 261.86 32.78&#10;  Q 261.86 31.89 260.98 31.98&#10;  L 259.47 32.14&#10;  A 0.63 0.60 86.8 0 1 258.80 31.51&#10;  L 258.80 26.18&#10;  Q 258.80 25.82 258.43 25.82&#10;  L 254.41 25.82&#10;  Q 254.08 25.82 254.08 26.15&#10;  L 254.08 31.51&#10;  Q 254.08 32.06 253.51 32.06&#10;  L 250.65 32.06&#10;  A 0.74 0.74 0.0 0 0 249.91 32.80&#10;  L 249.91 36.07&#10;  Q 249.91 37.03 250.87 36.93&#10;  L 253.17 36.68&#10;  Q 254.09 36.58 254.09 37.51&#10;  L 254.09 42.38&#10;  Q 254.09 43.46 253.02 43.57&#10;  L 250.55 43.84&#10;  Q 249.54 43.95 249.65 44.95&#10;  L 250.04 48.58&#10;  Q 250.14 49.52 251.03 49.20&#10;  L 253.42 48.35&#10;  Q 254.08 48.12 254.08 48.81&#10;  L 254.08 55.25&#10;  Q 254.08 55.83 253.61 56.16&#10;  Q 252.31 57.08 250.16 56.43&#10;  A 0.23 0.22 -1.3 0 0 249.88 56.72&#10;  L 251.41 61.00&#10;  A 0.22 0.22 0.0 0 0 251.62 61.15&#10;  Q 254.16 61.16 256.72 60.40&#10;  C 257.86 60.07 258.69 58.72 258.75 57.72&#10;  Q 258.82 56.45 258.82 47.79&#10;  Q 258.82 47.36 259.22 47.22&#10;  L 261.25 46.49&#10;  A 1.04 1.04 0.0 0 0 261.95 45.51&#10;  L 261.95 42.41&#10;  Q 261.95 41.39 260.98 41.73&#10;  L 259.45 42.28&#10;  A 0.48 0.48 0.0 0 1 258.81 41.83&#10;  L 258.81 37.36&#10;  Q 258.81 36.82 259.35 36.82&#10;  Z&#10;  M 277.91 44.43&#10;  Q 276.52 47.42 273.52 49.99&#10;  Q 273.05 50.39 272.66 49.92&#10;  L 268.09 44.43&#10;  A 0.64 0.64 0.0 0 0 267.29 44.29&#10;  L 264.18 46.09&#10;  Q 263.55 46.45 264.02 47.01&#10;  L 268.98 52.95&#10;  A 0.37 0.37 0.0 0 1 268.84 53.53&#10;  L 260.78 56.90&#10;  Q 260.63 56.97 260.71 57.11&#10;  L 263.03 61.12&#10;  Q 263.26 61.52 263.67 61.32&#10;  L 272.97 56.88&#10;  Q 273.41 56.67 273.85 56.89&#10;  L 282.63 61.21&#10;  A 0.21 0.21 0.0 0 0 282.90 61.12&#10;  L 285.44 56.74&#10;  A 0.18 0.17 -65.3 0 0 285.35 56.49&#10;  L 278.19 53.59&#10;  Q 277.54 53.33 278.00 52.80&#10;  Q 278.47 52.25 280.59 49.62&#10;  Q 284.81 44.41 284.03 39.68&#10;  Q 283.95 39.21 283.48 39.21&#10;  L 276.41 39.21&#10;  Q 276.09 39.21 276.09 38.90&#10;  L 276.09 35.58&#10;  Q 276.09 35.26 276.41 35.26&#10;  L 284.59 35.26&#10;  Q 284.95 35.26 284.95 34.90&#10;  L 284.95 31.24&#10;  A 0.42 0.42 0.0 0 0 284.53 30.82&#10;  L 276.69 30.82&#10;  Q 276.09 30.82 276.09 30.22&#10;  L 276.09 26.18&#10;  Q 276.09 25.78 275.69 25.78&#10;  L 271.26 25.78&#10;  A 0.36 0.35 -0.0 0 0 270.90 26.13&#10;  L 270.90 30.34&#10;  Q 270.90 30.82 270.42 30.82&#10;  L 263.24 30.82&#10;  Q 262.82 30.82 262.82 31.24&#10;  L 262.82 34.66&#10;  Q 262.82 35.25 263.41 35.25&#10;  L 270.56 35.25&#10;  Q 270.89 35.25 270.89 35.58&#10;  L 270.89 38.87&#10;  Q 270.89 39.22 270.54 39.22&#10;  L 263.28 39.22&#10;  Q 262.84 39.22 262.84 39.66&#10;  L 262.84 43.29&#10;  A 0.52 0.52 0.0 0 0 263.36 43.81&#10;  L 277.52 43.81&#10;  Q 278.19 43.81 277.91 44.43&#10;  Z&#10;  M 150.98 36.11&#10;  C 151.90 35.07 154.62 32.37 154.76 30.52&#10;  Q 154.89 28.77 154.75 27.81&#10;  Q 154.67 27.33 154.19 27.33&#10;  L 137.48 27.33&#10;  A 0.44 0.44 0.0 0 0 137.04 27.77&#10;  L 137.04 31.26&#10;  A 0.50 0.49 90.0 0 0 137.53 31.76&#10;  L 147.71 31.76&#10;  Q 149.19 31.76 148.08 32.74&#10;  Q 143.02 37.22 135.69 39.80&#10;  A 0.68 0.68 0.0 0 0 135.33 40.79&#10;  L 137.17 43.99&#10;  A 1.12 1.12 0.0 0 0 138.70 44.40&#10;  L 146.60 39.84&#10;  A 0.42 0.42 0.0 0 1 147.02 39.84&#10;  L 154.48 44.15&#10;  A 1.02 1.01 29.7 0 0 155.86 43.78&#10;  L 157.52 40.91&#10;  Q 157.86 40.32 157.25 40.02&#10;  L 151.16 37.02&#10;  Q 150.47 36.68 150.98 36.11&#10;  Z&#10;  M 231.8767 33.7261&#10;  A 0.48 0.48 0.0 0 0 231.8376 33.0484&#10;  L 226.6559 28.4317&#10;  A 0.48 0.48 0.0 0 0 225.9782 28.4708&#10;  L 223.6233 31.1139&#10;  A 0.48 0.48 0.0 0 0 223.6624 31.7916&#10;  L 228.8441 36.4083&#10;  A 0.48 0.48 0.0 0 0 229.5218 36.3692&#10;  L 231.8767 33.7261&#10;  Z&#10;  M 146.51 60.17&#10;  Q 156.54 60.18 157.02 60.18&#10;  Q 157.66 60.17 157.66 59.74&#10;  L 157.69 56.76&#10;  Q 157.70 56.07 157.01 56.07&#10;  L 149.48 56.07&#10;  Q 149.12 56.07 149.12 55.71&#10;  L 149.12 50.01&#10;  Q 149.12 49.66 149.47 49.66&#10;  L 155.48 49.66&#10;  Q 155.92 49.66 155.92 49.22&#10;  L 155.92 45.74&#10;  Q 155.92 45.21 155.39 45.21&#10;  Q 151.13 45.22 146.53 45.20&#10;  Q 141.93 45.21 137.67 45.19&#10;  Q 137.14 45.19 137.13 45.72&#10;  L 137.13 49.20&#10;  Q 137.12 49.64 137.56 49.64&#10;  L 143.57 49.65&#10;  Q 143.92 49.65 143.92 50.00&#10;  L 143.91 55.70&#10;  Q 143.91 56.06 143.55 56.06&#10;  L 136.02 56.05&#10;  Q 135.33 56.04 135.34 56.73&#10;  L 135.36 59.71&#10;  Q 135.36 60.14 136.00 60.15&#10;  Q 136.48 60.16 146.51 60.17&#10;  Z&#10;  M 61.78 79.12&#10;  A 0.23 0.23 0.0 0 0 61.98 79.46&#10;  L 71.36 79.46&#10;  Q 71.93 79.46 71.93 78.90&#10;  L 71.93 64.65&#10;  A 0.75 0.74 5.1 0 0 71.31 63.92&#10;  Q 70.76 63.82 70.26 63.93&#10;  Q 69.82 64.02 69.27 65.07&#10;  Q 67.81 67.84 61.78 79.12&#10;  Z&#10;  M 168.52 73.61&#10;  L 168.53 69.77&#10;  Q 168.53 69.24 168.00 69.24&#10;  L 167.61 69.24&#10;  A 0.50 0.50 0.0 0 0 167.11 69.73&#10;  L 167.08 81.52&#10;  Q 167.08 82.04 167.61 82.05&#10;  L 167.99 82.05&#10;  Q 168.54 82.05 168.55 81.50&#10;  L 168.56 76.64&#10;  Q 168.56 74.82 170.38 74.65&#10;  L 170.80 74.61&#10;  Q 172.56 74.45 172.55 76.21&#10;  L 172.54 81.63&#10;  Q 172.54 82.05 172.96 82.05&#10;  L 173.34 82.05&#10;  Q 173.95 82.05 173.97 81.44&#10;  Q 174.07 77.84 173.97 75.96&#10;  C 173.85 73.91 172.31 72.91 170.44 73.52&#10;  Q 169.34 73.87 169.00 73.97&#10;  Q 168.52 74.13 168.52 73.61&#10;  Z&#10;  M 224.87 73.63&#10;  L 224.87 69.77&#10;  Q 224.87 69.24 224.34 69.24&#10;  L 223.95 69.24&#10;  A 0.50 0.50 0.0 0 0 223.45 69.74&#10;  L 223.45 81.57&#10;  Q 223.45 82.10 223.98 82.10&#10;  L 224.36 82.10&#10;  Q 224.92 82.10 224.92 81.55&#10;  L 224.92 76.67&#10;  Q 224.92 74.84 226.74 74.67&#10;  L 227.17 74.63&#10;  Q 228.93 74.46 228.93 76.23&#10;  L 228.93 81.67&#10;  Q 228.93 82.09 229.35 82.09&#10;  L 229.74 82.09&#10;  Q 230.35 82.09 230.37 81.48&#10;  Q 230.46 77.86 230.35 75.97&#10;  C 230.23 73.92 228.68 72.92 226.80 73.53&#10;  Q 225.70 73.89 225.36 73.99&#10;  Q 224.87 74.15 224.87 73.63&#10;  Z&#10;  M 253.91 80.01&#10;  L 253.91 69.82&#10;  A 0.61 0.61 0.0 0 0 253.30 69.21&#10;  L 252.91 69.21&#10;  Q 252.46 69.21 252.45 69.66&#10;  Q 252.35 74.62 252.42 80.26&#10;  Q 252.44 82.31 254.31 82.28&#10;  Q 254.94 82.27 254.74 81.68&#10;  Q 254.62 81.34 254.25 80.92&#10;  Q 253.91 80.53 253.91 80.01&#10;  Z&#10;  M 138.3669 70.6878&#10;  A 0.97 0.82 4.6 0 0 137.4658 69.7926&#10;  A 0.97 0.82 4.6 0 0 136.4331 70.5322&#10;  A 0.97 0.82 4.6 0 0 137.3342 71.4274&#10;  A 0.97 0.82 4.6 0 0 138.3669 70.6878&#10;  Z&#10;  M 130.68 82.13&#10;  Q 131.03 81.75 131.90 81.43&#10;  Q 132.37 81.27 132.69 80.88&#10;  C 135.82 77.07 134.65 69.63 128.43 70.28&#10;  C 126.73 70.46 125.33 71.80 124.85 73.31&#10;  Q 122.80 79.83 128.20 82.18&#10;  Q 128.68 82.39 128.98 82.82&#10;  Q 130.72 85.38 134.15 84.78&#10;  Q 134.48 84.72 134.48 84.39&#10;  L 134.48 84.09&#10;  Q 134.48 83.69 134.08 83.73&#10;  Q 132.18 83.91 130.77 82.91&#10;  Q 130.29 82.57 130.68 82.13&#10;  Z&#10;  M 201.56 82.06&#10;  Q 201.75 82.06 201.88 82.03&#10;  Q 202.29 81.92 202.29 81.50&#10;  L 202.29 72.10&#10;  Q 202.29 71.54 202.85 71.54&#10;  L 205.55 71.54&#10;  A 0.31 0.31 0.0 0 0 205.86 71.23&#10;  L 205.86 70.92&#10;  Q 205.86 70.41 205.35 70.40&#10;  Q 203.45 70.35 201.55 70.37&#10;  Q 199.64 70.35 197.74 70.40&#10;  Q 197.23 70.42 197.23 70.93&#10;  L 197.23 71.24&#10;  A 0.31 0.31 0.0 0 0 197.54 71.55&#10;  L 200.24 71.54&#10;  Q 200.80 71.54 200.81 72.10&#10;  L 200.82 81.50&#10;  Q 200.82 81.92 201.24 82.03&#10;  Q 201.36 82.06 201.56 82.06&#10;  Z&#10;  M 74.20 71.32&#10;  Q 73.94 70.89 73.80 70.80&#10;  Q 73.07 70.34 73.06 71.13&#10;  L 72.99 78.73&#10;  Q 72.98 79.49 73.74 79.49&#10;  L 79.70 79.49&#10;  Q 80.29 79.49 79.92 79.03&#10;  Q 75.48 73.45 74.20 71.32&#10;  Z&#10;  M 62.3834 73.6467&#10;  A 0.50 0.50 0.0 0 0 61.8473 73.1856&#10;  L 52.1147 73.9174&#10;  A 0.50 0.50 0.0 0 0 51.6536 74.4534&#10;  L 51.6566 74.4933&#10;  A 0.50 0.50 0.0 0 0 52.1927 74.9544&#10;  L 61.9253 74.2226&#10;  A 0.50 0.50 0.0 0 0 62.3864 73.6866&#10;  L 62.3834 73.6467&#10;  Z&#10;  M 91.2183 74.4330&#10;  A 0.49 0.49 0.0 0 0 90.7618 73.9117&#10;  L 79.9058 73.1906&#10;  A 0.49 0.49 0.0 0 0 79.3844 73.6470&#10;  L 79.3817 73.6870&#10;  A 0.49 0.49 0.0 0 0 79.8382 74.2083&#10;  L 90.6942 74.9294&#10;  A 0.49 0.49 0.0 0 0 91.2156 74.4730&#10;  L 91.2183 74.4330&#10;  Z&#10;  M 138.1467 73.8613&#10;  A 0.51 0.51 0.0 0 0 137.6376 73.3504&#10;  L 137.1776 73.3496&#10;  A 0.51 0.51 0.0 0 0 136.6667 73.8587&#10;  L 136.6533 81.5387&#10;  A 0.51 0.51 0.0 0 0 137.1624 82.0496&#10;  L 137.6224 82.0504&#10;  A 0.51 0.51 0.0 0 0 138.1333 81.5413&#10;  L 138.1467 73.8613&#10;  Z&#10;  M 142.30 73.92&#10;  Q 142.08 73.54 141.72 73.36&#10;  Q 141.03 73.01 141.03 73.78&#10;  L 141.03 81.64&#10;  Q 141.03 82.08 141.46 82.08&#10;  L 141.86 82.08&#10;  Q 142.49 82.08 142.49 81.45&#10;  L 142.47 76.74&#10;  Q 142.47 74.89 144.36 74.63&#10;  Q 144.51 74.60 144.56 74.60&#10;  Q 146.46 74.36 146.47 76.27&#10;  L 146.50 81.55&#10;  Q 146.50 82.08 147.03 82.08&#10;  L 147.40 82.08&#10;  Q 147.92 82.08 147.92 81.56&#10;  L 147.92 75.34&#10;  A 1.24 1.23 -65.9 0 0 147.61 74.52&#10;  Q 145.73 72.41 143.06 74.11&#10;  Q 142.59 74.41 142.30 73.92&#10;  Z&#10;  M 156.68 74.49&#10;  Q 157.19 74.49 157.24 74.46&#10;  Q 158.83 73.52 157.03 73.44&#10;  Q 154.26 73.32 153.58 73.40&#10;  Q 149.63 73.86 150.63 77.15&#10;  A 2.66 2.64 -88.7 0 0 152.24 78.85&#10;  Q 155.62 80.10 156.63 77.01&#10;  Q 156.74 76.65 156.64 75.99&#10;  Q 156.56 75.50 156.33 75.05&#10;  Q 156.05 74.49 156.68 74.49&#10;  Z&#10;  M 161.10 74.65&#10;  Q 162.33 74.11 163.99 74.87&#10;  A 0.42 0.42 0.0 0 0 164.53 74.70&#10;  L 164.67 74.44&#10;  Q 164.80 74.22 164.59 74.08&#10;  Q 162.51 72.76 160.50 73.74&#10;  Q 158.99 74.47 159.21 75.93&#10;  Q 159.33 76.72 160.58 77.47&#10;  Q 161.44 77.99 163.12 78.95&#10;  A 1.07 1.07 0.0 0 1 162.94 80.88&#10;  Q 161.46 81.39 159.76 80.27&#10;  Q 159.51 80.10 159.27 80.29&#10;  L 159.06 80.47&#10;  A 0.40 0.40 0.0 0 0 159.07 81.09&#10;  Q 162.05 83.33 164.52 81.16&#10;  A 1.91 1.91 0.0 0 0 164.22 78.07&#10;  L 161.02 76.22&#10;  A 0.88 0.88 0.0 0 1 161.10 74.65&#10;  Z&#10;  M 181.90 81.61&#10;  Q 182.04 81.90 182.38 82.05&#10;  Q 182.92 82.29 182.93 81.70&#10;  C 182.98 78.07 184.12 72.31 178.73 73.53&#10;  Q 177.29 73.85 176.77 74.35&#10;  A 0.29 0.29 0.0 0 0 176.78 74.78&#10;  L 177.04 74.99&#10;  Q 177.28 75.19 177.55 75.04&#10;  Q 179.36 74.01 180.70 74.77&#10;  Q 181.46 75.20 181.46 76.07&#10;  A 0.60 0.60 0.0 0 1 180.95 76.66&#10;  C 178.49 77.03 175.09 77.90 176.68 81.25&#10;  Q 176.91 81.74 177.42 81.94&#10;  Q 179.08 82.59 180.97 81.34&#10;  Q 181.59 80.93 181.90 81.61&#10;  Z&#10;  M 186.98 73.91&#10;  Q 186.76 73.53 186.40 73.34&#10;  Q 185.71 72.99 185.70 73.76&#10;  L 185.67 81.64&#10;  Q 185.67 82.09 186.10 82.09&#10;  L 186.50 82.09&#10;  Q 187.13 82.09 187.13 81.46&#10;  L 187.13 76.74&#10;  Q 187.14 74.88 189.04 74.63&#10;  Q 189.19 74.60 189.24 74.60&#10;  Q 191.15 74.37 191.15 76.28&#10;  L 191.16 81.58&#10;  Q 191.15 82.11 191.69 82.11&#10;  L 192.06 82.11&#10;  Q 192.58 82.12 192.58 81.59&#10;  L 192.61 75.36&#10;  A 1.24 1.24 0.0 0 0 192.30 74.53&#10;  Q 190.42 72.41 187.74 74.10&#10;  Q 187.26 74.40 186.98 73.91&#10;  Z&#10;  M 207.77 78.10&#10;  L 212.29 78.10&#10;  Q 213.16 78.10 213.16 77.24&#10;  L 213.16 75.97&#10;  Q 213.16 74.12 211.37 73.63&#10;  Q 206.92 72.42 206.07 76.79&#10;  C 205.36 80.45 208.67 83.44 212.25 81.72&#10;  Q 212.62 81.54 212.62 81.13&#10;  L 212.62 80.76&#10;  A 0.26 0.25 -11.6 0 0 212.26 80.53&#10;  Q 208.59 82.04 207.38 78.65&#10;  A 0.41 0.41 0.0 0 1 207.77 78.10&#10;  Z&#10;  M 214.68 77.83&#10;  C 214.78 81.36 217.99 83.16 221.17 81.39&#10;  Q 221.44 81.24 221.41 80.93&#10;  Q 221.39 80.80 221.31 80.64&#10;  Q 221.13 80.29 220.48 80.48&#10;  Q 220.43 80.49 219.48 80.81&#10;  C 217.51 81.45 216.28 79.53 216.23 77.78&#10;  C 216.18 76.04 217.31 74.05 219.31 74.58&#10;  Q 220.27 74.85 220.32 74.85&#10;  Q 220.98 75.01 221.14 74.65&#10;  Q 221.21 74.48 221.23 74.35&#10;  Q 221.24 74.04 220.96 73.91&#10;  C 217.69 72.32 214.59 74.29 214.68 77.83&#10;  Z&#10;  M 234.36 73.90&#10;  Q 234.14 73.52 233.78 73.34&#10;  Q 233.08 72.99 233.09 73.76&#10;  L 233.11 81.63&#10;  Q 233.11 82.07 233.55 82.07&#10;  L 233.95 82.07&#10;  Q 234.58 82.06 234.57 81.43&#10;  L 234.54 76.72&#10;  Q 234.53 74.87 236.42 74.60&#10;  Q 236.57 74.57 236.62 74.57&#10;  Q 238.52 74.33 238.54 76.24&#10;  L 238.59 81.52&#10;  Q 238.59 82.05 239.12 82.05&#10;  L 239.49 82.05&#10;  Q 240.01 82.05 240.01 81.53&#10;  L 239.99 75.30&#10;  A 1.24 1.23 -66.1 0 0 239.67 74.48&#10;  Q 237.78 72.38 235.12 74.09&#10;  Q 234.65 74.39 234.36 73.90&#10;  Z&#10;  M 246.2301 82.1694&#10;  A 4.46 4.05 89.1 0 0 250.2095 77.6464&#10;  A 4.46 4.05 89.1 0 0 246.0899 73.2506&#10;  A 4.46 4.05 89.1 0 0 242.1105 77.7736&#10;  A 4.46 4.05 89.1 0 0 246.2301 82.1694&#10;  Z&#10;  M 260.2934 82.1599&#10;  A 4.46 4.06 89.7 0 0 264.3299 77.6787&#10;  A 4.46 4.06 89.7 0 0 260.2466 73.2401&#10;  A 4.46 4.06 89.7 0 0 256.2101 77.7213&#10;  A 4.46 4.06 89.7 0 0 260.2934 82.1599&#10;  Z&#10;  M 272.60 74.49&#10;  Q 273.11 74.50 273.16 74.47&#10;  Q 274.78 73.54 272.97 73.44&#10;  Q 270.18 73.28 269.49 73.35&#10;  Q 265.51 73.76 266.47 77.09&#10;  A 2.68 2.66 -87.9 0 0 268.07 78.82&#10;  Q 271.46 80.13 272.52 77.03&#10;  Q 272.63 76.67 272.54 76.00&#10;  Q 272.47 75.51 272.24 75.05&#10;  Q 271.97 74.48 272.60 74.49&#10;  Z&#10;  M 278.30 79.75&#10;  L 276.11 73.62&#10;  A 0.50 0.49 69.9 0 0 275.48 73.32&#10;  L 275.05 73.47&#10;  Q 274.67 73.61 274.81 73.98&#10;  Q 276.50 78.45 277.54 80.96&#10;  C 278.32 82.86 277.51 84.29 275.49 84.57&#10;  A 0.51 0.50 -3.9 0 0 275.05 85.07&#10;  L 275.05 85.46&#10;  Q 275.05 85.70 275.29 85.70&#10;  Q 277.78 85.72 278.50 84.26&#10;  Q 279.81 81.65 282.20 73.76&#10;  Q 282.35 73.26 281.80 73.34&#10;  L 281.51 73.38&#10;  Q 280.97 73.46 280.80 73.97&#10;  L 278.91 79.74&#10;  Q 278.61 80.63 278.30 79.75&#10;  Z&#10;  M 151.67 81.89&#10;  Q 149.83 82.61 150.15 84.30&#10;  A 1.46 1.45 5.9 0 0 151.02 85.36&#10;  Q 154.55 86.84 157.50 84.45&#10;  A 1.90 1.90 0.0 0 0 156.30 81.07&#10;  L 152.91 81.07&#10;  A 0.77 0.76 78.2 0 1 152.21 80.61&#10;  Q 151.99 80.13 152.05 79.46&#10;  A 0.36 0.36 0.0 0 0 151.57 79.09&#10;  L 151.19 79.23&#10;  A 0.82 0.82 0.0 0 0 150.79 79.54&#10;  Q 149.94 80.85 151.39 81.02&#10;  Q 151.58 81.05 151.72 81.15&#10;  Q 151.87 81.27 151.91 81.43&#10;  Q 151.99 81.76 151.67 81.89&#10;  Z&#10;  M 267.50 81.85&#10;  Q 265.65 82.55 265.95 84.25&#10;  A 1.47 1.45 6.4 0 0 266.82 85.32&#10;  Q 270.34 86.84 273.32 84.47&#10;  A 1.91 1.91 0.0 0 0 272.15 81.07&#10;  L 268.75 81.04&#10;  A 0.77 0.76 78.7 0 1 268.05 80.57&#10;  Q 267.83 80.08 267.90 79.41&#10;  A 0.36 0.36 0.0 0 0 267.42 79.04&#10;  L 267.04 79.18&#10;  A 0.82 0.82 0.0 0 0 266.64 79.48&#10;  Q 265.77 80.79 267.23 80.97&#10;  Q 267.42 81.00 267.56 81.11&#10;  Q 267.70 81.23 267.74 81.39&#10;  Q 267.82 81.72 267.50 81.85&#10;  Z&#10;  M 58.8971 79.8351&#10;  A 0.38 0.38 0.0 0 0 58.4903 79.4839&#10;  L 48.7565 80.1987&#10;  A 0.38 0.38 0.0 0 0 48.4053 80.6056&#10;  L 48.4229 80.8449&#10;  A 0.38 0.38 0.0 0 0 48.8297 81.1961&#10;  L 58.5635 80.4813&#10;  A 0.38 0.38 0.0 0 0 58.9147 80.0744&#10;  L 58.8971 79.8351&#10;  Z&#10;  M 94.7671 80.7188&#10;  A 0.47 0.47 0.0 0 0 94.3311 80.2172&#10;  L 83.5773 79.4652&#10;  A 0.47 0.47 0.0 0 0 83.0757 79.9013&#10;  L 83.0729 79.9412&#10;  A 0.47 0.47 0.0 0 0 83.5089 80.4428&#10;  L 94.2627 81.1948&#10;  A 0.47 0.47 0.0 0 0 94.7643 80.7587&#10;  L 94.7671 80.7188&#10;  Z&#10;  M 70.99 83.94&#10;  Q 76.02 83.93 81.01 82.75&#10;  A 1.11 1.11 0.0 0 0 81.85 81.53&#10;  Q 81.75 80.85 80.93 80.98&#10;  Q 75.92 81.77 70.99 81.78&#10;  Q 66.05 81.79 61.04 81.01&#10;  Q 60.22 80.88 60.12 81.56&#10;  A 1.11 1.11 0.0 0 0 60.97 82.78&#10;  Q 65.96 83.95 70.99 83.94&#10;  Z"/>
<path fill="#1a4394" d="&#10;  M 77.40 44.21&#10;  A 0.24 0.23 -44.6 0 0 77.81 44.21&#10;  Q 80.43 39.66 84.78 32.27&#10;  Q 84.90 32.06 84.99 32.00&#10;  Q 85.37 31.75 85.60 32.14&#10;  L 115.20 83.10&#10;  Q 115.43 83.50 114.97 83.50&#10;  L 99.75 83.50&#10;  A 1.30 1.29 -14.6 0 1 98.62 82.84&#10;  L 77.69 46.60&#10;  A 0.17 0.17 0.0 0 0 77.39 46.60&#10;  L 68.02 62.82&#10;  Q 67.72 63.34 67.41 62.82&#10;  L 62.15 53.70&#10;  A 0.47 0.47 0.0 0 0 61.33 53.70&#10;  L 44.58 82.73&#10;  A 1.14 1.14 0.0 0 1 43.59 83.30&#10;  L 21.34 83.30&#10;  Q 20.96 83.30 21.15 82.96&#10;  L 60.12 15.47&#10;  A 0.39 0.39 0.0 0 1 60.80 15.47&#10;  L 77.40 44.21&#10;  Z"/>
<path fill="#1a4394" d="&#10;  M 130.01 30.22&#10;  L 135.60 30.22&#10;  Q 136.24 30.22 136.24 30.86&#10;  L 136.24 34.04&#10;  Q 136.24 34.51 135.76 34.51&#10;  L 128.95 34.51&#10;  Q 128.42 34.51 128.28 35.03&#10;  L 126.33 42.74&#10;  A 0.41 0.40 -83.2 0 0 126.72 43.24&#10;  L 127.73 43.24&#10;  A 0.60 0.60 0.0 0 0 128.33 42.64&#10;  L 128.33 37.22&#10;  A 0.59 0.58 -0.0 0 1 128.92 36.64&#10;  L 132.33 36.64&#10;  Q 132.75 36.64 132.75 37.07&#10;  L 132.75 42.75&#10;  Q 132.75 43.21 133.21 43.21&#10;  L 135.02 43.21&#10;  Q 135.81 43.21 135.81 43.99&#10;  L 135.81 46.73&#10;  Q 135.81 47.50 135.04 47.50&#10;  L 133.33 47.50&#10;  Q 132.75 47.50 132.75 48.08&#10;  L 132.75 50.03&#10;  Q 132.75 50.55 133.26 50.55&#10;  L 135.54 50.55&#10;  Q 136.21 50.55 136.21 51.22&#10;  L 136.21 54.03&#10;  Q 136.21 54.91 135.33 54.91&#10;  L 133.30 54.91&#10;  Q 132.76 54.91 132.76 55.45&#10;  L 132.76 60.76&#10;  Q 132.76 61.27 132.25 61.27&#10;  L 128.78 61.27&#10;  A 0.46 0.45 90.0 0 1 128.33 60.81&#10;  L 128.33 55.80&#10;  Q 128.33 55.48 128.00 55.48&#10;  L 121.95 55.48&#10;  Q 121.66 55.48 121.66 55.19&#10;  L 121.66 51.39&#10;  A 0.39 0.38 -0.0 0 1 122.05 51.01&#10;  L 127.91 51.01&#10;  Q 128.33 51.01 128.33 50.59&#10;  L 128.33 47.91&#10;  Q 128.33 47.50 127.92 47.50&#10;  L 122.49 47.50&#10;  Q 121.96 47.50 121.92 46.97&#10;  Q 121.65 43.36 122.30 41.07&#10;  Q 123.19 37.89 123.80 35.08&#10;  A 0.49 0.49 0.0 0 0 123.32 34.49&#10;  L 122.13 34.49&#10;  Q 121.59 34.49 121.59 33.95&#10;  L 121.59 30.79&#10;  Q 121.59 30.21 122.17 30.21&#10;  L 124.32 30.21&#10;  Q 124.82 30.21 124.95 29.71&#10;  L 125.83 26.23&#10;  A 0.38 0.38 0.0 0 1 126.20 25.94&#10;  L 129.95 25.94&#10;  A 0.41 0.40 -82.8 0 1 130.34 26.45&#10;  L 129.54 29.62&#10;  Q 129.39 30.22 130.01 30.22&#10;  Z"/>
<path fill="#1a4394" d="&#10;  M 179.59 53.21&#10;  L 179.59 26.17&#10;  A 0.39 0.39 0.0 0 1 179.98 25.78&#10;  L 184.70 25.78&#10;  A 0.39 0.39 0.0 0 1 185.09 26.17&#10;  L 185.09 53.21&#10;  A 0.39 0.39 0.0 0 0 185.48 53.60&#10;  L 192.46 53.60&#10;  A 0.39 0.39 0.0 0 0 192.85 53.21&#10;  L 192.85 33.04&#10;  A 0.39 0.39 0.0 0 1 193.24 32.65&#10;  L 197.66 32.65&#10;  A 0.39 0.39 0.0 0 1 198.05 33.04&#10;  L 198.05 60.85&#10;  A 0.39 0.39 0.0 0 1 197.66 61.24&#10;  L 193.24 61.24&#10;  A 0.39 0.39 0.0 0 1 192.85 60.85&#10;  L 192.85 58.73&#10;  A 0.39 0.39 0.0 0 0 192.46 58.34&#10;  L 166.98 58.34&#10;  A 0.39 0.39 0.0 0 1 166.59 57.95&#10;  L 166.59 33.04&#10;  A 0.39 0.39 0.0 0 1 166.98 32.65&#10;  L 171.40 32.65&#10;  A 0.39 0.39 0.0 0 1 171.79 33.04&#10;  L 171.79 53.21&#10;  A 0.39 0.39 0.0 0 0 172.18 53.60&#10;  L 179.20 53.60&#10;  A 0.39 0.39 0.0 0 0 179.59 53.21&#10;  Z"/>
<path fill="#1a4394" d="&#10;  M 238.43 47.47&#10;  L 242.33 47.05&#10;  A 0.39 0.39 0.0 0 1 242.76 47.40&#10;  L 243.16 51.20&#10;  A 0.35 0.35 0.0 0 1 242.85 51.59&#10;  L 238.20 52.09&#10;  Q 237.83 52.13 237.83 52.50&#10;  L 237.83 60.83&#10;  Q 237.83 61.25 237.42 61.25&#10;  L 233.05 61.25&#10;  Q 232.64 61.25 232.64 60.84&#10;  L 232.64 53.10&#10;  Q 232.64 52.46 232.01 52.53&#10;  L 222.05 53.60&#10;  Q 221.42 53.66 221.36 53.03&#10;  L 221.04 50.04&#10;  Q 221.00 49.66 220.68 49.44&#10;  Q 218.95 48.23 217.92 46.74&#10;  Q 217.20 45.69 217.20 46.96&#10;  L 217.20 60.77&#10;  Q 217.20 61.24 216.73 61.24&#10;  L 212.78 61.24&#10;  Q 212.48 61.24 212.48 60.94&#10;  L 212.48 50.38&#10;  Q 212.48 49.42 212.00 50.25&#10;  L 208.83 55.73&#10;  A 0.07 0.07 0.0 0 1 208.71 55.72&#10;  L 206.83 50.45&#10;  Q 206.72 50.15 206.92 49.91&#10;  Q 210.10 46.20 212.03 41.39&#10;  A 0.35 0.35 0.0 0 0 211.70 40.91&#10;  L 207.47 40.91&#10;  Q 207.30 40.91 207.30 40.74&#10;  L 207.30 36.44&#10;  Q 207.30 36.18 207.56 36.18&#10;  L 212.28 36.18&#10;  Q 212.47 36.18 212.47 35.98&#10;  L 212.47 32.54&#10;  Q 212.47 32.36 212.29 32.36&#10;  L 208.25 32.36&#10;  A 0.45 0.45 0.0 0 1 207.80 31.95&#10;  L 207.43 28.58&#10;  Q 207.40 28.23 207.74 28.19&#10;  L 220.51 26.82&#10;  A 0.60 0.59 76.9 0 1 221.13 27.22&#10;  L 222.31 30.53&#10;  Q 222.52 31.10 221.91 31.16&#10;  L 217.76 31.61&#10;  Q 217.20 31.67 217.20 32.23&#10;  L 217.20 35.81&#10;  A 0.36 0.35 90.0 0 0 217.55 36.17&#10;  L 221.38 36.17&#10;  Q 222.00 36.17 221.98 36.78&#10;  L 221.93 39.01&#10;  Q 221.87 41.31 223.22 39.42&#10;  Q 223.59 38.90 224.68 37.91&#10;  Q 225.04 37.59 225.41 37.90&#10;  L 230.69 42.25&#10;  A 0.47 0.47 0.0 0 1 230.75 42.92&#10;  L 228.48 45.68&#10;  Q 228.20 46.02 227.86 45.74&#10;  L 222.58 41.39&#10;  Q 221.99 40.91 221.23 40.91&#10;  L 217.90 40.91&#10;  Q 217.35 40.91 217.22 41.44&#10;  Q 217.02 42.30 217.26 43.40&#10;  Q 217.38 43.96 217.74 43.51&#10;  Q 218.16 42.99 218.41 42.81&#10;  Q 218.82 42.53 219.21 42.84&#10;  L 223.02 45.99&#10;  Q 223.55 46.43 223.03 46.88&#10;  L 221.62 48.12&#10;  Q 220.45 49.15 222.00 48.99&#10;  L 232.29 47.89&#10;  Q 232.64 47.85 232.64 47.50&#10;  L 232.64 26.20&#10;  Q 232.64 25.79 233.05 25.79&#10;  L 237.44 25.79&#10;  Q 237.83 25.79 237.83 26.19&#10;  L 237.83 46.93&#10;  Q 237.83 47.53 238.43 47.47&#10;  Z"/>
<path fill="#1a4394" d="&#10;  M 259.35 36.82&#10;  Q 258.81 36.82 258.81 37.36&#10;  L 258.81 41.83&#10;  A 0.48 0.48 0.0 0 0 259.45 42.28&#10;  L 260.98 41.73&#10;  Q 261.95 41.39 261.95 42.41&#10;  L 261.95 45.51&#10;  A 1.04 1.04 0.0 0 1 261.25 46.49&#10;  L 259.22 47.22&#10;  Q 258.82 47.36 258.82 47.79&#10;  Q 258.82 56.45 258.75 57.72&#10;  C 258.69 58.72 257.86 60.07 256.72 60.40&#10;  Q 254.16 61.16 251.62 61.15&#10;  A 0.22 0.22 0.0 0 1 251.41 61.00&#10;  L 249.88 56.72&#10;  A 0.23 0.22 -1.3 0 1 250.16 56.43&#10;  Q 252.31 57.08 253.61 56.16&#10;  Q 254.08 55.83 254.08 55.25&#10;  L 254.08 48.81&#10;  Q 254.08 48.12 253.42 48.35&#10;  L 251.03 49.20&#10;  Q 250.14 49.52 250.04 48.58&#10;  L 249.65 44.95&#10;  Q 249.54 43.95 250.55 43.84&#10;  L 253.02 43.57&#10;  Q 254.09 43.46 254.09 42.38&#10;  L 254.09 37.51&#10;  Q 254.09 36.58 253.17 36.68&#10;  L 250.87 36.93&#10;  Q 249.91 37.03 249.91 36.07&#10;  L 249.91 32.80&#10;  A 0.74 0.74 0.0 0 1 250.65 32.06&#10;  L 253.51 32.06&#10;  Q 254.08 32.06 254.08 31.51&#10;  L 254.08 26.15&#10;  Q 254.08 25.82 254.41 25.82&#10;  L 258.43 25.82&#10;  Q 258.80 25.82 258.80 26.18&#10;  L 258.80 31.51&#10;  A 0.63 0.60 86.8 0 0 259.47 32.14&#10;  L 260.98 31.98&#10;  Q 261.86 31.89 261.86 32.78&#10;  L 261.86 36.19&#10;  A 0.63 0.63 0.0 0 1 261.23 36.82&#10;  L 259.35 36.82&#10;  Z"/>
<path fill="#1a4394" d="&#10;  M 277.52 43.81&#10;  L 263.36 43.81&#10;  A 0.52 0.52 0.0 0 1 262.84 43.29&#10;  L 262.84 39.66&#10;  Q 262.84 39.22 263.28 39.22&#10;  L 270.54 39.22&#10;  Q 270.89 39.22 270.89 38.87&#10;  L 270.89 35.58&#10;  Q 270.89 35.25 270.56 35.25&#10;  L 263.41 35.25&#10;  Q 262.82 35.25 262.82 34.66&#10;  L 262.82 31.24&#10;  Q 262.82 30.82 263.24 30.82&#10;  L 270.42 30.82&#10;  Q 270.90 30.82 270.90 30.34&#10;  L 270.90 26.13&#10;  A 0.36 0.35 0.0 0 1 271.26 25.78&#10;  L 275.69 25.78&#10;  Q 276.09 25.78 276.09 26.18&#10;  L 276.09 30.22&#10;  Q 276.09 30.82 276.69 30.82&#10;  L 284.53 30.82&#10;  A 0.42 0.42 0.0 0 1 284.95 31.24&#10;  L 284.95 34.90&#10;  Q 284.95 35.26 284.59 35.26&#10;  L 276.41 35.26&#10;  Q 276.09 35.26 276.09 35.58&#10;  L 276.09 38.90&#10;  Q 276.09 39.21 276.41 39.21&#10;  L 283.48 39.21&#10;  Q 283.95 39.21 284.03 39.68&#10;  Q 284.81 44.41 280.59 49.62&#10;  Q 278.47 52.25 278.00 52.80&#10;  Q 277.54 53.33 278.19 53.59&#10;  L 285.35 56.49&#10;  A 0.18 0.17 -65.3 0 1 285.44 56.74&#10;  L 282.90 61.12&#10;  A 0.21 0.21 0.0 0 1 282.63 61.21&#10;  L 273.85 56.89&#10;  Q 273.41 56.67 272.97 56.88&#10;  L 263.67 61.32&#10;  Q 263.26 61.52 263.03 61.12&#10;  L 260.71 57.11&#10;  Q 260.63 56.97 260.78 56.90&#10;  L 268.84 53.53&#10;  A 0.37 0.37 0.0 0 0 268.98 52.95&#10;  L 264.02 47.01&#10;  Q 263.55 46.45 264.18 46.09&#10;  L 267.29 44.29&#10;  A 0.64 0.64 0.0 0 1 268.09 44.43&#10;  L 272.66 49.92&#10;  Q 273.05 50.39 273.52 49.99&#10;  Q 276.52 47.42 277.91 44.43&#10;  Q 278.19 43.81 277.52 43.81&#10;  Z"/>
<path fill="#1a4394" d="&#10;  M 151.16 37.02&#10;  L 157.25 40.02&#10;  Q 157.86 40.32 157.52 40.91&#10;  L 155.86 43.78&#10;  A 1.02 1.01 29.7 0 1 154.48 44.15&#10;  L 147.02 39.84&#10;  A 0.42 0.42 0.0 0 0 146.60 39.84&#10;  L 138.70 44.40&#10;  A 1.12 1.12 0.0 0 1 137.17 43.99&#10;  L 135.33 40.79&#10;  A 0.68 0.68 0.0 0 1 135.69 39.80&#10;  Q 143.02 37.22 148.08 32.74&#10;  Q 149.19 31.76 147.71 31.76&#10;  L 137.53 31.76&#10;  A 0.50 0.49 90.0 0 1 137.04 31.26&#10;  L 137.04 27.77&#10;  A 0.44 0.44 0.0 0 1 137.48 27.33&#10;  L 154.19 27.33&#10;  Q 154.67 27.33 154.75 27.81&#10;  Q 154.89 28.77 154.76 30.52&#10;  C 154.62 32.37 151.90 35.07 150.98 36.11&#10;  Q 150.47 36.68 151.16 37.02&#10;  Z"/>
<rect fill="#1a4394" x="-3.95" y="-2.25" transform="translate(227.75,32.42) rotate(41.7)" width="7.90" height="4.50" rx="0.48"/>
<path fill="#1a4394" d="&#10;  M 146.53 45.20&#10;  Q 151.13 45.22 155.39 45.21&#10;  Q 155.92 45.21 155.92 45.74&#10;  L 155.92 49.22&#10;  Q 155.92 49.66 155.48 49.66&#10;  L 149.47 49.66&#10;  Q 149.12 49.66 149.12 50.01&#10;  L 149.12 55.71&#10;  Q 149.12 56.07 149.48 56.07&#10;  L 157.01 56.07&#10;  Q 157.70 56.07 157.69 56.76&#10;  L 157.66 59.74&#10;  Q 157.66 60.17 157.02 60.18&#10;  Q 156.54 60.18 146.51 60.17&#10;  Q 136.48 60.16 136.00 60.15&#10;  Q 135.36 60.14 135.36 59.71&#10;  L 135.34 56.73&#10;  Q 135.33 56.04 136.02 56.05&#10;  L 143.55 56.06&#10;  Q 143.91 56.06 143.91 55.70&#10;  L 143.92 50.00&#10;  Q 143.92 49.65 143.57 49.65&#10;  L 137.56 49.64&#10;  Q 137.12 49.64 137.13 49.20&#10;  L 137.13 45.72&#10;  Q 137.14 45.19 137.67 45.19&#10;  Q 141.93 45.21 146.53 45.20&#10;  Z"/>
<path fill="#e8af42" d="&#10;  M 61.78 79.12&#10;  Q 67.81 67.84 69.27 65.07&#10;  Q 69.82 64.02 70.26 63.93&#10;  Q 70.76 63.82 71.31 63.92&#10;  A 0.75 0.74 5.1 0 1 71.93 64.65&#10;  L 71.93 78.90&#10;  Q 71.93 79.46 71.36 79.46&#10;  L 61.98 79.46&#10;  A 0.23 0.23 0.0 0 1 61.78 79.12&#10;  Z&#10;  M 69.54 77.42&#10;  A 0.32 0.31 90.0 0 0 69.85 77.10&#10;  L 69.85 69.56&#10;  Q 69.85 68.73 69.44 69.45&#10;  L 65.24 76.72&#10;  Q 64.84 77.42 65.65 77.42&#10;  L 69.54 77.42&#10;  Z"/>
<path fill="#ffffff" d="&#10;  M 69.54 77.42&#10;  L 65.65 77.42&#10;  Q 64.84 77.42 65.24 76.72&#10;  L 69.44 69.45&#10;  Q 69.85 68.73 69.85 69.56&#10;  L 69.85 77.10&#10;  A 0.32 0.31 90.0 0 1 69.54 77.42&#10;  Z"/>
<path fill="#1a4394" d="&#10;  M 168.52 73.61&#10;  Q 168.52 74.13 169.00 73.97&#10;  Q 169.34 73.87 170.44 73.52&#10;  C 172.31 72.91 173.85 73.91 173.97 75.96&#10;  Q 174.07 77.84 173.97 81.44&#10;  Q 173.95 82.05 173.34 82.05&#10;  L 172.96 82.05&#10;  Q 172.54 82.05 172.54 81.63&#10;  L 172.55 76.21&#10;  Q 172.56 74.45 170.80 74.61&#10;  L 170.38 74.65&#10;  Q 168.56 74.82 168.56 76.64&#10;  L 168.55 81.50&#10;  Q 168.54 82.05 167.99 82.05&#10;  L 167.61 82.05&#10;  Q 167.08 82.04 167.08 81.52&#10;  L 167.11 69.73&#10;  A 0.50 0.50 0.0 0 1 167.61 69.24&#10;  L 168.00 69.24&#10;  Q 168.53 69.24 168.53 69.77&#10;  L 168.52 73.61&#10;  Z"/>
<path fill="#1a4394" d="&#10;  M 225.36 73.99&#10;  Q 225.70 73.89 226.80 73.53&#10;  C 228.68 72.92 230.23 73.92 230.35 75.97&#10;  Q 230.46 77.86 230.37 81.48&#10;  Q 230.35 82.09 229.74 82.09&#10;  L 229.35 82.09&#10;  Q 228.93 82.09 228.93 81.67&#10;  L 228.93 76.23&#10;  Q 228.93 74.46 227.17 74.63&#10;  L 226.74 74.67&#10;  Q 224.92 74.84 224.92 76.67&#10;  L 224.92 81.55&#10;  Q 224.92 82.10 224.36 82.10&#10;  L 223.98 82.10&#10;  Q 223.45 82.10 223.45 81.57&#10;  L 223.45 69.74&#10;  A 0.50 0.50 0.0 0 1 223.95 69.24&#10;  L 224.34 69.24&#10;  Q 224.87 69.24 224.87 69.77&#10;  L 224.87 73.63&#10;  Q 224.87 74.15 225.36 73.99&#10;  Z"/>
<path fill="#1a4394" d="&#10;  M 254.25 80.92&#10;  Q 254.62 81.34 254.74 81.68&#10;  Q 254.94 82.27 254.31 82.28&#10;  Q 252.44 82.31 252.42 80.26&#10;  Q 252.35 74.62 252.45 69.66&#10;  Q 252.46 69.21 252.91 69.21&#10;  L 253.30 69.21&#10;  A 0.61 0.61 0.0 0 1 253.91 69.82&#10;  L 253.91 80.01&#10;  Q 253.91 80.53 254.25 80.92&#10;  Z"/>
<ellipse fill="#1a4394" cx="0.00" cy="0.00" transform="translate(137.40,70.61) rotate(4.6)" rx="0.97" ry="0.82"/>
<path fill="#1a4394" d="&#10;  M 130.77 82.91&#10;  Q 132.18 83.91 134.08 83.73&#10;  Q 134.48 83.69 134.48 84.09&#10;  L 134.48 84.39&#10;  Q 134.48 84.72 134.15 84.78&#10;  Q 130.72 85.38 128.98 82.82&#10;  Q 128.68 82.39 128.20 82.18&#10;  Q 122.80 79.83 124.85 73.31&#10;  C 125.33 71.80 126.73 70.46 128.43 70.28&#10;  C 134.65 69.63 135.82 77.07 132.69 80.88&#10;  Q 132.37 81.27 131.90 81.43&#10;  Q 131.03 81.75 130.68 82.13&#10;  Q 130.29 82.57 130.77 82.91&#10;  Z&#10;  M 129.3300 80.9400&#10;  A 4.75 3.55 90.0 0 0 132.8800 76.1900&#10;  A 4.75 3.55 90.0 0 0 129.3300 71.4400&#10;  A 4.75 3.55 90.0 0 0 125.7800 76.1900&#10;  A 4.75 3.55 90.0 0 0 129.3300 80.9400&#10;  Z"/>
<path fill="#1a4394" d="&#10;  M 201.55 70.37&#10;  Q 203.45 70.35 205.35 70.40&#10;  Q 205.86 70.41 205.86 70.92&#10;  L 205.86 71.23&#10;  A 0.31 0.31 0.0 0 1 205.55 71.54&#10;  L 202.85 71.54&#10;  Q 202.29 71.54 202.29 72.10&#10;  L 202.29 81.50&#10;  Q 202.29 81.92 201.88 82.03&#10;  Q 201.75 82.06 201.56 82.06&#10;  Q 201.36 82.06 201.24 82.03&#10;  Q 200.82 81.92 200.82 81.50&#10;  L 200.81 72.10&#10;  Q 200.80 71.54 200.24 71.54&#10;  L 197.54 71.55&#10;  A 0.31 0.31 0.0 0 1 197.23 71.24&#10;  L 197.23 70.93&#10;  Q 197.23 70.42 197.74 70.40&#10;  Q 199.64 70.35 201.55 70.37&#10;  Z"/>
<path fill="#e8af42" d="&#10;  M 74.20 71.32&#10;  Q 75.48 73.45 79.92 79.03&#10;  Q 80.29 79.49 79.70 79.49&#10;  L 73.74 79.49&#10;  Q 72.98 79.49 72.99 78.73&#10;  L 73.06 71.13&#10;  Q 73.07 70.34 73.80 70.80&#10;  Q 73.94 70.89 74.20 71.32&#10;  Z&#10;  M 76.72 77.53&#10;  Q 75.95 76.11 74.94 75.29&#10;  Q 74.52 74.95 74.52 75.48&#10;  L 74.52 77.23&#10;  Q 74.52 77.75 75.02 77.88&#10;  Q 75.73 78.06 76.53 77.92&#10;  A 0.27 0.27 0.0 0 0 76.72 77.53&#10;  Z"/>
<ellipse fill="#ffffff" cx="0.00" cy="0.00" transform="translate(129.33,76.19) rotate(90.0)" rx="4.75" ry="3.55"/>
<rect fill="#428fce" x="-5.38" y="-0.52" transform="translate(57.02,74.07) rotate(-4.3)" width="10.76" height="1.04" rx="0.50"/>
<rect fill="#428fce" x="-5.93" y="-0.51" transform="translate(85.30,74.06) rotate(3.8)" width="11.86" height="1.02" rx="0.49"/>
<rect fill="#1a4394" x="-0.74" y="-4.35" transform="translate(137.40,77.70) rotate(0.1)" width="1.48" height="8.70" rx="0.51"/>
<path fill="#1a4394" d="&#10;  M 143.06 74.11&#10;  Q 145.73 72.41 147.61 74.52&#10;  A 1.24 1.23 -65.9 0 1 147.92 75.34&#10;  L 147.92 81.56&#10;  Q 147.92 82.08 147.40 82.08&#10;  L 147.03 82.08&#10;  Q 146.50 82.08 146.50 81.55&#10;  L 146.47 76.27&#10;  Q 146.46 74.36 144.56 74.60&#10;  Q 144.51 74.60 144.36 74.63&#10;  Q 142.47 74.89 142.47 76.74&#10;  L 142.49 81.45&#10;  Q 142.49 82.08 141.86 82.08&#10;  L 141.46 82.08&#10;  Q 141.03 82.08 141.03 81.64&#10;  L 141.03 73.78&#10;  Q 141.03 73.01 141.72 73.36&#10;  Q 142.08 73.54 142.30 73.92&#10;  Q 142.59 74.41 143.06 74.11&#10;  Z"/>
<path fill="#1a4394" d="&#10;  M 156.33 75.05&#10;  Q 156.56 75.50 156.64 75.99&#10;  Q 156.74 76.65 156.63 77.01&#10;  Q 155.62 80.10 152.24 78.85&#10;  A 2.66 2.64 -88.7 0 1 150.63 77.15&#10;  Q 149.63 73.86 153.58 73.40&#10;  Q 154.26 73.32 157.03 73.44&#10;  Q 158.83 73.52 157.24 74.46&#10;  Q 157.19 74.49 156.68 74.49&#10;  Q 156.05 74.49 156.33 75.05&#10;  Z&#10;  M 155.56 76.27&#10;  A 1.94 1.94 0.0 0 0 153.62 74.33&#10;  A 1.94 1.94 0.0 0 0 151.68 76.27&#10;  A 1.94 1.94 0.0 0 0 153.62 78.21&#10;  A 1.94 1.94 0.0 0 0 155.56 76.27&#10;  Z"/>
<path fill="#1a4394" d="&#10;  M 161.10 74.65&#10;  A 0.88 0.88 0.0 0 0 161.02 76.22&#10;  L 164.22 78.07&#10;  A 1.91 1.91 0.0 0 1 164.52 81.16&#10;  Q 162.05 83.33 159.07 81.09&#10;  A 0.40 0.40 0.0 0 1 159.06 80.47&#10;  L 159.27 80.29&#10;  Q 159.51 80.10 159.76 80.27&#10;  Q 161.46 81.39 162.94 80.88&#10;  A 1.07 1.07 0.0 0 0 163.12 78.95&#10;  Q 161.44 77.99 160.58 77.47&#10;  Q 159.33 76.72 159.21 75.93&#10;  Q 158.99 74.47 160.50 73.74&#10;  Q 162.51 72.76 164.59 74.08&#10;  Q 164.80 74.22 164.67 74.44&#10;  L 164.53 74.70&#10;  A 0.42 0.42 0.0 0 1 163.99 74.87&#10;  Q 162.33 74.11 161.10 74.65&#10;  Z"/>
<path fill="#1a4394" d="&#10;  M 180.97 81.34&#10;  Q 179.08 82.59 177.42 81.94&#10;  Q 176.91 81.74 176.68 81.25&#10;  C 175.09 77.90 178.49 77.03 180.95 76.66&#10;  A 0.60 0.60 0.0 0 0 181.46 76.07&#10;  Q 181.46 75.20 180.70 74.77&#10;  Q 179.36 74.01 177.55 75.04&#10;  Q 177.28 75.19 177.04 74.99&#10;  L 176.78 74.78&#10;  A 0.29 0.29 0.0 0 1 176.77 74.35&#10;  Q 177.29 73.85 178.73 73.53&#10;  C 184.12 72.31 182.98 78.07 182.93 81.70&#10;  Q 182.92 82.29 182.38 82.05&#10;  Q 182.04 81.90 181.90 81.61&#10;  Q 181.59 80.93 180.97 81.34&#10;  Z&#10;  M 181.5817 78.2537&#10;  A 2.22 1.47 -29.0 0 0 178.9273 78.0443&#10;  A 2.22 1.47 -29.0 0 0 177.6983 80.4063&#10;  A 2.22 1.47 -29.0 0 0 180.3527 80.6157&#10;  A 2.22 1.47 -29.0 0 0 181.5817 78.2537&#10;  Z"/>
<path fill="#1a4394" d="&#10;  M 186.98 73.91&#10;  Q 187.26 74.40 187.74 74.10&#10;  Q 190.42 72.41 192.30 74.53&#10;  A 1.24 1.24 0.0 0 1 192.61 75.36&#10;  L 192.58 81.59&#10;  Q 192.58 82.12 192.06 82.11&#10;  L 191.69 82.11&#10;  Q 191.15 82.11 191.16 81.58&#10;  L 191.15 76.28&#10;  Q 191.15 74.37 189.24 74.60&#10;  Q 189.19 74.60 189.04 74.63&#10;  Q 187.14 74.88 187.13 76.74&#10;  L 187.13 81.46&#10;  Q 187.13 82.09 186.50 82.09&#10;  L 186.10 82.09&#10;  Q 185.67 82.09 185.67 81.64&#10;  L 185.70 73.76&#10;  Q 185.71 72.99 186.40 73.34&#10;  Q 186.76 73.53 186.98 73.91&#10;  Z"/>
<path fill="#1a4394" d="&#10;  M 207.77 78.10&#10;  A 0.41 0.41 0.0 0 0 207.38 78.65&#10;  Q 208.59 82.04 212.26 80.53&#10;  A 0.26 0.25 -11.6 0 1 212.62 80.76&#10;  L 212.62 81.13&#10;  Q 212.62 81.54 212.25 81.72&#10;  C 208.67 83.44 205.36 80.45 206.07 76.79&#10;  Q 206.92 72.42 211.37 73.63&#10;  Q 213.16 74.12 213.16 75.97&#10;  L 213.16 77.24&#10;  Q 213.16 78.10 212.29 78.10&#10;  L 207.77 78.10&#10;  Z&#10;  M 207.70 77.00&#10;  L 211.74 77.04&#10;  A 0.24 0.24 0.0 0 0 211.98 76.80&#10;  L 211.98 76.65&#10;  A 2.17 2.14 -89.4 0 0 209.86 74.46&#10;  L 209.62 74.46&#10;  A 2.17 2.14 -89.4 0 0 207.46 76.61&#10;  L 207.46 76.76&#10;  A 0.24 0.24 0.0 0 0 207.70 77.00&#10;  Z"/>
<path fill="#1a4394" d="&#10;  M 216.23 77.78&#10;  C 216.28 79.53 217.51 81.45 219.48 80.81&#10;  Q 220.43 80.49 220.48 80.48&#10;  Q 221.13 80.29 221.31 80.64&#10;  Q 221.39 80.80 221.41 80.93&#10;  Q 221.44 81.24 221.17 81.39&#10;  C 217.99 83.16 214.78 81.36 214.68 77.83&#10;  C 214.59 74.29 217.69 72.32 220.96 73.91&#10;  Q 221.24 74.04 221.23 74.35&#10;  Q 221.21 74.48 221.14 74.65&#10;  Q 220.98 75.01 220.32 74.85&#10;  Q 220.27 74.85 219.31 74.58&#10;  C 217.31 74.05 216.18 76.04 216.23 77.78&#10;  Z"/>
<path fill="#1a4394" d="&#10;  M 234.36 73.90&#10;  Q 234.65 74.39 235.12 74.09&#10;  Q 237.78 72.38 239.67 74.48&#10;  A 1.24 1.23 -66.1 0 1 239.99 75.30&#10;  L 240.01 81.53&#10;  Q 240.01 82.05 239.49 82.05&#10;  L 239.12 82.05&#10;  Q 238.59 82.05 238.59 81.52&#10;  L 238.54 76.24&#10;  Q 238.52 74.33 236.62 74.57&#10;  Q 236.57 74.57 236.42 74.60&#10;  Q 234.53 74.87 234.54 76.72&#10;  L 234.57 81.43&#10;  Q 234.58 82.06 233.95 82.07&#10;  L 233.55 82.07&#10;  Q 233.11 82.07 233.11 81.63&#10;  L 233.09 73.76&#10;  Q 233.08 72.99 233.78 73.34&#10;  Q 234.14 73.52 234.36 73.90&#10;  Z"/>
<path fill="#1a4394" d="&#10;  M 246.2301 82.1694&#10;  A 4.46 4.05 89.1 0 1 242.1105 77.7736&#10;  A 4.46 4.05 89.1 0 1 246.0899 73.2506&#10;  A 4.46 4.05 89.1 0 1 250.2095 77.6464&#10;  A 4.46 4.05 89.1 0 1 246.2301 82.1694&#10;  Z&#10;  M 246.1600 80.9100&#10;  A 3.25 2.56 90.0 0 0 248.7200 77.6600&#10;  A 3.25 2.56 90.0 0 0 246.1600 74.4100&#10;  A 3.25 2.56 90.0 0 0 243.6000 77.6600&#10;  A 3.25 2.56 90.0 0 0 246.1600 80.9100&#10;  Z"/>
<path fill="#1a4394" d="&#10;  M 260.2934 82.1599&#10;  A 4.46 4.06 89.7 0 1 256.2101 77.7213&#10;  A 4.46 4.06 89.7 0 1 260.2466 73.2401&#10;  A 4.46 4.06 89.7 0 1 264.3299 77.6787&#10;  A 4.46 4.06 89.7 0 1 260.2934 82.1599&#10;  Z&#10;  M 260.2857 80.9100&#10;  A 3.24 2.55 89.9 0 0 262.8300 77.6655&#10;  A 3.24 2.55 89.9 0 0 260.2743 74.4300&#10;  A 3.24 2.55 89.9 0 0 257.7300 77.6745&#10;  A 3.24 2.55 89.9 0 0 260.2857 80.9100&#10;  Z"/>
<path fill="#1a4394" d="&#10;  M 272.60 74.49&#10;  Q 271.97 74.48 272.24 75.05&#10;  Q 272.47 75.51 272.54 76.00&#10;  Q 272.63 76.67 272.52 77.03&#10;  Q 271.46 80.13 268.07 78.82&#10;  A 2.68 2.66 -87.9 0 1 266.47 77.09&#10;  Q 265.51 73.76 269.49 73.35&#10;  Q 270.18 73.28 272.97 73.44&#10;  Q 274.78 73.54 273.16 74.47&#10;  Q 273.11 74.50 272.60 74.49&#10;  Z&#10;  M 271.38 76.27&#10;  A 1.92 1.92 0.0 0 0 269.46 74.35&#10;  A 1.92 1.92 0.0 0 0 267.54 76.27&#10;  A 1.92 1.92 0.0 0 0 269.46 78.19&#10;  A 1.92 1.92 0.0 0 0 271.38 76.27&#10;  Z"/>
<path fill="#1a4394" d="&#10;  M 278.30 79.75&#10;  Q 278.61 80.63 278.91 79.74&#10;  L 280.80 73.97&#10;  Q 280.97 73.46 281.51 73.38&#10;  L 281.80 73.34&#10;  Q 282.35 73.26 282.20 73.76&#10;  Q 279.81 81.65 278.50 84.26&#10;  Q 277.78 85.72 275.29 85.70&#10;  Q 275.05 85.70 275.05 85.46&#10;  L 275.05 85.07&#10;  A 0.51 0.50 -3.9 0 1 275.49 84.57&#10;  C 277.51 84.29 278.32 82.86 277.54 80.96&#10;  Q 276.50 78.45 274.81 73.98&#10;  Q 274.67 73.61 275.05 73.47&#10;  L 275.48 73.32&#10;  A 0.50 0.49 69.9 0 1 276.11 73.62&#10;  L 278.30 79.75&#10;  Z"/>
<circle fill="#ffffff" cx="153.62" cy="76.27" r="1.94"/>
<circle fill="#ffffff" cx="269.46" cy="76.27" r="1.92"/>
<path fill="#ffffff" d="&#10;  M 207.70 77.00&#10;  A 0.24 0.24 0.0 0 1 207.46 76.76&#10;  L 207.46 76.61&#10;  A 2.17 2.14 -89.4 0 1 209.62 74.46&#10;  L 209.86 74.46&#10;  A 2.17 2.14 -89.4 0 1 211.98 76.65&#10;  L 211.98 76.80&#10;  A 0.24 0.24 0.0 0 1 211.74 77.04&#10;  L 207.70 77.00&#10;  Z"/>
<ellipse fill="#ffffff" cx="0.00" cy="0.00" transform="translate(246.16,77.66) rotate(90.0)" rx="3.25" ry="2.56"/>
<ellipse fill="#ffffff" cx="0.00" cy="0.00" transform="translate(260.28,77.67) rotate(89.9)" rx="3.24" ry="2.55"/>
<path fill="#ffffff" d="&#10;  M 76.72 77.53&#10;  A 0.27 0.27 0.0 0 1 76.53 77.92&#10;  Q 75.73 78.06 75.02 77.88&#10;  Q 74.52 77.75 74.52 77.23&#10;  L 74.52 75.48&#10;  Q 74.52 74.95 74.94 75.29&#10;  Q 75.95 76.11 76.72 77.53&#10;  Z"/>
<ellipse fill="#ffffff" cx="0.00" cy="0.00" transform="translate(179.64,79.33) rotate(-29.0)" rx="2.22" ry="1.47"/>
<path fill="#1a4394" d="&#10;  M 151.91 81.43&#10;  Q 151.87 81.27 151.72 81.15&#10;  Q 151.58 81.05 151.39 81.02&#10;  Q 149.94 80.85 150.79 79.54&#10;  A 0.82 0.82 0.0 0 1 151.19 79.23&#10;  L 151.57 79.09&#10;  A 0.36 0.36 0.0 0 1 152.05 79.46&#10;  Q 151.99 80.13 152.21 80.61&#10;  A 0.77 0.76 78.2 0 0 152.91 81.07&#10;  L 156.30 81.07&#10;  A 1.90 1.90 0.0 0 1 157.50 84.45&#10;  Q 154.55 86.84 151.02 85.36&#10;  A 1.46 1.45 5.9 0 1 150.15 84.30&#10;  Q 149.83 82.61 151.67 81.89&#10;  Q 151.99 81.76 151.91 81.43&#10;  Z&#10;  M 151.74 82.63&#10;  A 1.08 1.08 0.0 0 0 151.86 84.45&#10;  Q 154.31 85.80 156.40 83.84&#10;  A 0.76 0.76 0.0 0 0 156.15 82.57&#10;  Q 153.30 81.49 151.74 82.63&#10;  Z"/>
<path fill="#1a4394" d="&#10;  M 267.50 81.85&#10;  Q 267.82 81.72 267.74 81.39&#10;  Q 267.70 81.23 267.56 81.11&#10;  Q 267.42 81.00 267.23 80.97&#10;  Q 265.77 80.79 266.64 79.48&#10;  A 0.82 0.82 0.0 0 1 267.04 79.18&#10;  L 267.42 79.04&#10;  A 0.36 0.36 0.0 0 1 267.90 79.41&#10;  Q 267.83 80.08 268.05 80.57&#10;  A 0.77 0.76 78.7 0 0 268.75 81.04&#10;  L 272.15 81.07&#10;  A 1.91 1.91 0.0 0 1 273.32 84.47&#10;  Q 270.34 86.84 266.82 85.32&#10;  A 1.47 1.45 6.4 0 1 265.95 84.25&#10;  Q 265.65 82.55 267.50 81.85&#10;  Z&#10;  M 267.58 82.64&#10;  A 1.08 1.07 -48.8 0 0 267.69 84.45&#10;  Q 270.13 85.80 272.21 83.85&#10;  A 0.76 0.75 -56.1 0 0 271.96 82.59&#10;  Q 269.13 81.51 267.58 82.64&#10;  Z"/>
<rect fill="#428fce" x="-5.26" y="-0.50" transform="translate(53.66,80.34) rotate(-4.2)" width="10.52" height="1.00" rx="0.38"/>
<rect fill="#428fce" x="-5.86" y="-0.49" transform="translate(88.92,80.33) rotate(4.0)" width="11.72" height="0.98" rx="0.47"/>
<path fill="#e8af42" d="&#10;  M 70.99 81.78&#10;  Q 75.92 81.77 80.93 80.98&#10;  Q 81.75 80.85 81.85 81.53&#10;  A 1.11 1.11 0.0 0 1 81.01 82.75&#10;  Q 76.02 83.93 70.99 83.94&#10;  Q 65.96 83.95 60.97 82.78&#10;  A 1.11 1.11 0.0 0 1 60.12 81.56&#10;  Q 60.22 80.88 61.04 81.01&#10;  Q 66.05 81.79 70.99 81.78&#10;  Z"/>
<path fill="#ffffff" d="&#10;  M 151.74 82.63&#10;  Q 153.30 81.49 156.15 82.57&#10;  A 0.76 0.76 0.0 0 1 156.40 83.84&#10;  Q 154.31 85.80 151.86 84.45&#10;  A 1.08 1.08 0.0 0 1 151.74 82.63&#10;  Z"/>
<path fill="#ffffff" d="&#10;  M 267.58 82.64&#10;  Q 269.13 81.51 271.96 82.59&#10;  A 0.76 0.75 -56.1 0 1 272.21 83.85&#10;  Q 270.13 85.80 267.69 84.45&#10;  A 1.08 1.07 -48.8 0 1 267.58 82.64&#10;  Z"/>
</svg>